<?xml version="1.0" encoding="UTF-8"?>
<svg version="1.1" xmlns="http://www.w3.org/2000/svg" width="800" height="356">
<path d="M0 0 C264 0 528 0 800 0 C800 117.48 800 234.96 800 356 C536 356 272 356 0 356 C0 238.52 0 121.04 0 0 Z " fill="#001220" transform="translate(0,0)"/>
<path d="M0 0 C9.57 0 19.14 0 29 0 C32.0625 6.125 32.0625 6.125 33.18457031 8.37133789 C35.30662333 12.61879856 37.43334751 16.86386479 39.56587219 21.1060791 C46.18824916 34.28240346 52.75819697 47.4737867 59.07739258 60.79907227 C62.57640642 68.16202777 66.20957897 75.45166924 69.87597656 82.73242188 C73.64513931 90.238601 77.27110478 97.80792228 80.875 105.39453125 C84.4387659 112.87641478 88.12768613 120.28956162 91.85522461 127.69091797 C96.69098135 137.32075138 101.32320338 147.04633597 105.93774414 156.78369141 C106.63614621 158.2408493 107.36918241 159.68199384 108.13842773 161.10302734 C109 163 109 163 109 166 C100.75 166 92.5 166 84 166 C77.72446586 153.52276153 71.49428664 141.03743616 65.4987793 128.42358398 C61.21674734 119.42414871 56.86085177 110.46140883 52.5 101.5 C47.36197807 90.93891433 42.24067477 80.37101603 37.19604492 69.76489258 C34.41996691 63.93835367 31.60569477 58.13139862 28.7734375 52.33203125 C28.02933777 50.80617209 27.28527861 49.28029314 26.54125977 47.75439453 C25.43229279 45.48024748 24.32197826 43.20681243 23.20724487 40.93548584 C22.17250717 38.82713055 21.14247954 36.7165323 20.11328125 34.60546875 C19.79825653 33.96704544 19.48323181 33.32862213 19.15866089 32.67085266 C17 28.22729719 17 28.22729719 17 26 C14.12561801 28.49987833 12.76111645 31.19560117 11.13671875 34.6171875 C10.58757812 35.76509766 10.0384375 36.91300781 9.47265625 38.09570312 C8.87759075 39.35546241 8.28253909 40.61522824 7.6875 41.875 C7.05797916 43.19498955 6.42775806 44.51464534 5.796875 45.83398438 C4.49246334 48.56344691 3.19104195 51.29430233 1.89208984 54.02636719 C-0.88376772 59.86127214 -3.69057549 65.68119792 -6.5 71.5 C-7.05816406 72.65725586 -7.61632812 73.81451172 -8.19140625 75.00683594 C-13.69128288 86.39931508 -19.2524622 97.76179518 -24.8125 109.125 C-31.30470697 122.39374214 -37.79618311 135.66277496 -44.25424194 148.94818115 C-44.94044261 150.35968427 -45.62696657 151.77103029 -46.31387329 153.18218994 C-51.62056059 164.08581971 -56.80835068 175.03985144 -62 186 C-46.82 186 -31.64 186 -16 186 C-24 204 -24 204 -27 210 C-51.42 210 -75.84 210 -101 210 C-99.59397104 205.78191313 -98.22573922 202.17407526 -96.3046875 198.23046875 C-95.76150879 197.1105957 -95.21833008 195.99072266 -94.65869141 194.83691406 C-94.06415986 193.62042694 -93.46959512 192.40395605 -92.875 191.1875 C-92.25533057 189.91261275 -91.63603513 188.63754366 -91.01708984 187.36230469 C-89.70149478 184.65318034 -88.3838302 181.94507743 -87.06445312 179.23779297 C-83.92281064 172.79077966 -80.79180641 166.33860166 -77.66143799 159.8861084 C-76.97019451 158.46144911 -76.27874739 157.03688862 -75.58709717 155.61242676 C-71.28067677 146.74263903 -67.02696142 137.85145195 -62.85668945 128.91674805 C-61.06184715 125.10527221 -59.19286465 121.33427256 -57.30078125 117.5703125 C-56.95594193 116.88240128 -56.6111026 116.19449005 -56.2558136 115.48573303 C-55.17153532 113.32332208 -54.08593878 111.16157749 -53 109 C-52.3123148 107.6306265 -51.6246517 106.26124191 -50.93701172 104.8918457 C-50.59938812 104.21954422 -50.26176453 103.54724274 -49.91390991 102.85456848 C-48.52098728 100.08012432 -47.12913694 97.30514302 -45.73754883 94.5300293 C-45.04362049 93.14717419 -44.34897184 91.76468028 -43.65356445 90.38256836 C-38.77116864 80.67654524 -34.02821614 70.91098993 -29.35652161 61.10185242 C-25.85409216 53.75854451 -22.29729582 46.44328589 -18.7109375 39.140625 C-18.1893959 38.0785231 -17.66785431 37.0164212 -17.13050842 35.9221344 C-14.99699072 31.5799419 -12.86162581 27.23866121 -10.72509766 22.89794922 C-9.13543426 19.66712962 -7.54805565 16.4351955 -5.9609375 13.203125 C-5.23298477 11.72685638 -5.23298477 11.72685638 -4.49032593 10.22076416 C-4.04540802 9.31421082 -3.60049011 8.40765747 -3.14208984 7.47363281 C-2.75113129 6.67918762 -2.36017273 5.88474243 -1.95736694 5.06622314 C-0.89844755 2.8818555 -0.89844755 2.8818555 0 0 Z " fill="#FBFCFC" transform="translate(121,74)"/>
<path d="M0 0 C8.91 0 17.82 0 27 0 C33.61028176 12.43945439 39.99527639 24.9434547 46.125 37.625 C46.95137906 39.32858691 47.7780451 41.03203463 48.60498047 42.73535156 C50.68189693 47.01509481 52.75529684 51.2965304 54.82763672 55.57849121 C56.61210924 59.26430768 58.39974681 62.94858645 60.1875 66.6328125 C62.80756223 72.03309305 65.42589095 77.43421006 68.04296875 82.8359375 C71.81440186 90.61967982 75.59202236 98.40040984 79.37139893 106.18029785 C80.43054332 108.36067881 81.48946376 110.54116841 82.54833984 112.72167969 C85.86203596 119.54480477 89.17780761 126.36690495 92.49940491 133.18618774 C94.04534518 136.36036336 95.59023635 139.53504905 97.13504028 142.70977783 C97.86634777 144.21194567 98.59816224 145.71386681 99.33053589 147.21551514 C102.95385204 154.64495069 106.52760947 162.08685772 109.91796875 169.62646484 C111.48573136 173.06549645 113.16700062 176.44146018 114.875 179.8125 C115.21233154 180.48410156 115.54966309 181.15570313 115.8972168 181.84765625 C117.57608433 185.18890489 119.26626596 188.52420258 120.96484375 191.85546875 C121.27631348 192.46994873 121.5877832 193.08442871 121.90869141 193.7175293 C122.75483798 195.38628027 123.60576143 197.05260669 124.45703125 198.71875 C126.18210778 202.38726719 127.57658925 206.20423799 129 210 C104.25 210 79.5 210 54 210 C43 187 43 187 43 186 C59.17 186 75.34 186 92 186 C89.21304688 180.43656738 86.42609375 174.87313477 83.5546875 169.14111328 C74.37084019 150.80648475 65.19132425 132.46969031 56.0140686 114.13176155 C50.44709509 103.0081401 44.87862016 91.88527499 39.30664062 80.76416016 C34.45178622 71.07434606 29.59971794 61.38314298 24.75103188 51.69024074 C22.1820863 46.55496362 19.61172277 41.42040716 17.0380249 36.28750992 C14.61821767 31.46141749 12.2021253 26.63348418 9.7889328 21.80408096 C8.90020585 20.02717964 8.01009601 18.25096924 7.1185379 16.47548676 C5.90623786 14.06076369 4.69883101 11.64365738 3.49267578 9.2258606 C2.95572492 8.16069739 2.95572492 8.16069739 2.40792656 7.07401574 C0 2.22824242 0 2.22824242 0 0 Z " fill="#FBFCFC" transform="translate(172,74)"/>
<path d="M0 0 C0 7.26 0 14.52 0 22 C-0.66 21.67 -1.32 21.34 -2 21 C-2.52347035 18.75399899 -2.8283697 16.51036475 -3.14453125 14.2265625 C-4.35725 11.07017122 -6.00956153 10.48480866 -9 9 C-11.79238688 8.50383495 -11.79238688 8.50383495 -14.73828125 8.48828125 C-15.70032471 8.45516846 -16.66236816 8.42205566 -17.65356445 8.38793945 C-18.86101318 8.36304443 -20.06846191 8.33814941 -21.3125 8.3125 C-25.169375 8.209375 -29.02625 8.10625 -33 8 C-33 19.55 -33 31.1 -33 43 C-17.42248636 43.2036423 -17.42248636 43.2036423 -10 39 C-8.67698578 37.02081612 -8.67698578 37.02081612 -8.125 34.8125 C-7.568125 32.9253125 -7.568125 32.9253125 -7 31 C-6.67 31 -6.34 31 -6 31 C-6 40.24 -6 49.48 -6 59 C-7.0086432 56.98271359 -8.01625888 54.96051414 -8.875 52.875 C-10.30145119 50.49758135 -11.45346026 50.0452383 -14 49 C-16.21604163 48.63991339 -16.21604163 48.63991339 -18.546875 48.5859375 C-19.30838867 48.55032715 -20.06990234 48.5147168 -20.85449219 48.47802734 C-22.28776855 48.42702881 -22.28776855 48.42702881 -23.75 48.375 C-26.8025 48.25125 -29.855 48.1275 -33 48 C-33 58.89 -33 69.78 -33 81 C-29.679375 80.896875 -26.35875 80.79375 -22.9375 80.6875 C-21.90488037 80.66260498 -20.87226074 80.63770996 -19.80834961 80.61206055 C-12.03476269 80.30387648 -5.61964171 78.76373509 0 73 C2.17397836 69.41811185 4.12148227 65.74412469 6 62 C6.33 62 6.66 62 7 62 C6.37392048 67.79947349 5.32599062 73.33809831 3.9375 79 C3.75123047 79.77472656 3.56496094 80.54945313 3.37304688 81.34765625 C2.91923822 83.23270759 2.46017508 85.1164927 2 87 C-8.38833778 87.06972357 -18.77661924 87.12292438 -29.16514397 87.15543652 C-33.98973777 87.17104617 -38.81417066 87.19219796 -43.63867188 87.22631836 C-48.30062553 87.25908023 -52.96242506 87.27688831 -57.62448502 87.28463173 C-59.39695789 87.29014517 -61.16942299 87.30091111 -62.94182968 87.31719017 C-86.28919728 87.52296598 -86.28919728 87.52296598 -95 80 C-99.95577158 74.18175988 -102.95997015 67.13648571 -106.02099609 60.2043457 C-108.20747088 55.33722366 -110.64939145 51.17083752 -114 47 C-114.99 46.67 -115.98 46.34 -117 46 C-117 45.34 -117 44.68 -117 44 C-116.41992188 43.97421875 -115.83984375 43.9484375 -115.2421875 43.921875 C-109.82241466 43.52836014 -106.12497766 42.8303364 -102 39 C-98.38138455 32.36587167 -98.11760534 25.4470231 -99 18 C-100.49692234 13.9467949 -103.3387371 11.20788996 -107 9 C-110.49858868 8.42232504 -110.49858868 8.42232504 -114.25 8.3125 C-116.14492188 8.21388672 -116.14492188 8.21388672 -118.078125 8.11328125 C-119.04234375 8.07589844 -120.0065625 8.03851563 -121 8 C-120.96196233 17.31880912 -120.90262936 26.63716823 -120.81609726 35.95565414 C-120.77658611 40.28262602 -120.74441566 44.60939329 -120.72900391 48.93652344 C-120.71386101 53.11241533 -120.67945838 57.28774484 -120.63169098 61.46338654 C-120.61685259 63.05653241 -120.60895757 64.64975857 -120.60811615 66.24297333 C-120.60575197 68.47476673 -120.57872062 70.70499896 -120.54589844 72.93652344 C-120.53701599 74.20671326 -120.52813354 75.47690308 -120.51898193 76.7855835 C-119.91026769 80.55577467 -119.01755444 81.73388339 -116 84 C-113.35815459 84.79681318 -113.35815459 84.79681318 -111 85 C-111 85.66 -111 86.32 -111 87 C-123.21 87 -135.42 87 -148 87 C-148 86.34 -148 85.68 -148 85 C-146.576875 84.5978125 -146.576875 84.5978125 -145.125 84.1875 C-141.74732727 83.25013412 -141.74732727 83.25013412 -140 80 C-139.68037631 76.80460808 -139.68037631 76.80460808 -139.70947266 73.09765625 C-139.70275543 72.39977997 -139.69603821 71.70190369 -139.68911743 70.98287964 C-139.67011916 68.67601404 -139.6662127 66.36943896 -139.6640625 64.0625 C-139.657637 62.45971557 -139.65090883 60.85693233 -139.64389038 59.25415039 C-139.63191389 55.89499185 -139.62821005 52.5359362 -139.62939453 49.17675781 C-139.62959801 44.86885417 -139.60226807 40.56160809 -139.56785011 36.25386047 C-139.54563456 32.94418292 -139.54155529 29.63466514 -139.54261398 26.32492065 C-139.54025101 24.7364576 -139.53138845 23.14799061 -139.51594925 21.55960083 C-139.49639125 19.34004325 -139.50208486 17.12192359 -139.51416016 14.90234375 C-139.51131012 13.63898193 -139.50846008 12.37562012 -139.50552368 11.07397461 C-139.70365935 7.92719088 -139.70365935 7.92719088 -141.88973999 6.11157227 C-143.94271985 5.03017212 -145.72145815 4.40688247 -148 4 C-148 3.34 -148 2.68 -148 2 C-141.61372309 1.94901568 -135.22749928 1.91414768 -128.84106445 1.89013672 C-126.67144815 1.88011987 -124.5018452 1.86650258 -122.33227539 1.84912109 C-119.20195199 1.82468229 -116.07180812 1.81347343 -112.94140625 1.8046875 C-111.98166397 1.79436493 -111.02192169 1.78404236 -110.03309631 1.77340698 C-99.88758469 1.77174161 -90.99211112 3.22080654 -83.4609375 10.484375 C-78.75676087 15.82127714 -77.5281803 20.4124774 -77.68359375 27.375 C-78.52366122 34.34444863 -82.11588269 40.11588269 -87 45 C-89.27892429 46.52403062 -91.54938406 47.75066638 -94 49 C-93.56171875 49.36867187 -93.1234375 49.73734375 -92.671875 50.1171875 C-86.76500869 55.51980913 -82.59975547 61.78736745 -78.30175781 68.47607422 C-72.6104308 77.78399539 -72.6104308 77.78399539 -64 84 C-59.69326025 84.53305423 -56.71677386 84.47784924 -53 82 C-51.85893583 78.57680748 -51.85202065 75.9081099 -51.82299805 72.29711914 C-51.81642685 71.62035629 -51.80985565 70.94359344 -51.80308533 70.24632263 C-51.78339176 68.00926601 -51.77170066 65.77227628 -51.76171875 63.53515625 C-51.75764322 62.77062071 -51.7535677 62.00608517 -51.74936867 61.21838188 C-51.72852807 57.1743179 -51.71421581 53.13028768 -51.70483398 49.08618164 C-51.69375353 44.90844473 -51.65932972 40.73123811 -51.61966228 36.553689 C-51.59353475 33.34092714 -51.5851458 30.12829265 -51.58155251 26.91543388 C-51.5766791 25.37523236 -51.56504359 23.83503681 -51.54651451 22.29493904 C-51.52219602 20.1402874 -51.52307329 17.9870219 -51.5300293 15.83227539 C-51.52122993 13.99385826 -51.52122993 13.99385826 -51.51225281 12.11830139 C-52.09271403 8.40725381 -53.05889241 7.25656455 -56 5 C-58.1381966 4.2127322 -58.1381966 4.2127322 -60 4 C-60 3.34 -60 2.68 -60 2 C-59.30508957 1.98969254 -58.61017914 1.97938507 -57.89421082 1.96876526 C-51.34637933 1.87080081 -44.79863672 1.76828783 -38.25095654 1.66066074 C-34.88470387 1.60548878 -31.51844243 1.55207803 -28.15209961 1.50268555 C-24.28230386 1.44503363 -20.41264856 1.38132432 -16.54296875 1.31640625 C-15.33352097 1.29969376 -14.12407318 1.28298126 -12.87797546 1.26576233 C-11.19657219 1.2358445 -11.19657219 1.2358445 -9.48120117 1.20532227 C-8.49302902 1.18977798 -7.50485687 1.1742337 -6.48674011 1.15821838 C-4.2049168 1.01303779 -2.21414927 0 0 0 Z " fill="#F6F6F7" transform="translate(768,123)"/>
<path d="M0 0 C3 1 3 1 4.0625 3.109375 C4.371875 3.98078125 4.68125 4.8521875 5 5.75 C6.38073525 9.45121046 7.911437 12.64013778 10 16 C11.41528616 19.13824323 12.72295364 22.2890256 13.97265625 25.49609375 C15.95477208 30.63298459 15.95477208 30.63298459 18.5 35.5 C19.90504881 37.84174802 20.83376204 40.02100347 21.8125 42.5625 C23.35499411 46.54332133 25.12062143 50.32295558 27.0625 54.125 C28.76358706 57.45896009 30.36072178 60.72660168 31.625 64.25 C35.777657 75.65147752 35.777657 75.65147752 44 84 C46.64934822 84.71433121 46.64934822 84.71433121 49 85 C49 85.66 49 86.32 49 87 C36.13 87 23.26 87 10 87 C10 86.34 10 85.68 10 85 C12.475 84.01 12.475 84.01 15 83 C15.5645789 76.50734271 13.565727 71.8939592 11 66 C10.67 65.01 10.34 64.02 10 63 C0.76 63 -8.48 63 -18 63 C-18.66 65.31 -19.32 67.62 -20 70 C-20.804375 71.7634375 -20.804375 71.7634375 -21.625 73.5625 C-23.01013782 77.02534454 -23.26942089 79.31791451 -23 83 C-21.35 83.66 -19.7 84.32 -18 85 C-18 85.66 -18 86.32 -18 87 C-26.58 87 -35.16 87 -44 87 C-44 86.34 -44 85.68 -44 85 C-43.45730469 84.82984375 -42.91460937 84.6596875 -42.35546875 84.484375 C-41.64003906 84.24203125 -40.92460937 83.9996875 -40.1875 83.75 C-39.47980469 83.51796875 -38.77210938 83.2859375 -38.04296875 83.046875 C-33.62724414 80.78413275 -32.36020946 76.7330205 -30.8125 72.25 C-30.46832031 71.26515625 -30.12414062 70.2803125 -29.76953125 69.265625 C-29.51558594 68.51796875 -29.26164062 67.7703125 -29 67 C-28.34 67 -27.68 67 -27 67 C-26.91234375 66.3503125 -26.8246875 65.700625 -26.734375 65.03125 C-25.74215241 60.93569291 -24.0123964 57.3162506 -22.25 53.5 C-19.79245579 48.09252934 -17.43965391 42.69821611 -15.375 37.125 C-13.38140364 31.78404758 -10.95382829 26.78445525 -8.34765625 21.71875 C-6.61112437 18.21548569 -5.31079917 14.68272148 -4 11 C-3.46708864 9.74624235 -2.92559856 8.49609149 -2.375 7.25 C-1.33373272 4.78882279 -0.52064977 2.60324883 0 0 Z " fill="#F4F5F5" transform="translate(377,123)"/>
<path d="M0 0 C7.09826323 -0.10186657 14.19633619 -0.17166082 21.29516602 -0.21972656 C23.70734705 -0.23977552 26.11947989 -0.26702192 28.53149414 -0.30175781 C32.00939873 -0.35057051 35.48665772 -0.37303683 38.96484375 -0.390625 C40.03395493 -0.41127014 41.1030661 -0.43191528 42.20457458 -0.45318604 C50.34506387 -0.45559635 55.95571831 1.48355806 62.8125 5.75 C68.03795361 11.12475228 69.29204821 15.93997528 69.5625 23.4375 C69.342679 31.05543463 67.66904383 35.90720744 62.61328125 41.546875 C56.61895659 47.13062948 49.65983134 48.5598391 41.69921875 48.37109375 C37.5149048 47.79582627 34.59764535 46.17216323 31 44 C31 43.34 31 42.68 31 42 C31.58007812 41.91363281 32.16015625 41.82726562 32.7578125 41.73828125 C38.41784025 40.72022345 41.99895561 39.38209624 46 35 C49.04762698 29.71282894 49.9145177 24.0053329 49 18 C47.73255421 13.70022424 46.53935135 10.12531892 42.84057617 7.42138672 C39.48608724 5.74284486 36.92023134 5.50102178 33.1875 5.3125 C32.02605469 5.24675781 30.86460937 5.18101562 29.66796875 5.11328125 C28.78753906 5.07589844 27.90710938 5.03851563 27 5 C27.06116641 14.46640816 27.13823979 23.9325133 27.23571491 33.39861774 C27.28047318 37.79396551 27.31971706 42.18921941 27.34643555 46.5847168 C27.3724144 50.825366 27.41277776 55.06565505 27.46318626 59.30608177 C27.4798918 60.92517816 27.49138308 62.54433689 27.49761391 64.16350746 C27.50721531 66.42880783 27.53522486 68.69317914 27.56762695 70.95825195 C27.57873001 72.24842728 27.58983307 73.5386026 27.60127258 74.86787415 C27.74266061 77.95804471 27.74266061 77.95804471 29.35905457 79.8971405 C31.50087163 81.33662974 33.46533104 81.65747717 36 82 C36 82.33 36 82.66 36 83 C24.12 83 12.24 83 0 83 C1.98 82.01 1.98 82.01 4 81 C6.38506416 78.96827868 6.97677282 78.06968154 8 75 C8.10984471 72.76233409 8.15904032 70.52153837 8.17700195 68.28125 C8.18357315 67.60288086 8.19014435 66.92451172 8.19691467 66.22558594 C8.21660569 63.98372281 8.22829776 61.74192637 8.23828125 59.5 C8.24235678 58.73421631 8.2464323 57.96843262 8.25063133 57.17944336 C8.27146921 53.13004833 8.28578356 49.08068701 8.29516602 45.03125 C8.30625567 40.84444756 8.34069072 36.65817292 8.38033772 32.47155762 C8.40643884 29.25454702 8.41485176 26.03766382 8.41844749 22.82055664 C8.42332649 21.27673762 8.43497777 19.73292477 8.45348549 18.18920898 C8.47775157 16.03195783 8.4769366 13.87609491 8.4699707 11.71875 C8.47583694 10.49091797 8.48170319 9.26308594 8.48774719 7.99804688 C8.28876657 4.94374987 8.28876657 4.94374987 6.22062683 3.20507812 C4.16476392 2.08941322 2.12179449 0.98511887 0 0 Z " fill="#FAFAFA" transform="translate(496,126)"/>
<path d="M0 0 C1.24100464 0.01643555 1.24100464 0.01643555 2.50708008 0.03320312 C9.32759731 0.15477391 16.08253806 0.61070946 22.875 1.25 C22.545 7.19 22.215 13.13 21.875 19.25 C21.215 19.25 20.555 19.25 19.875 19.25 C19.648125 18.1775 19.42125 17.105 19.1875 16 C17.4430416 11.01583313 15.1101194 9.491733 10.625 7 C3.78183713 5.13368285 -1.93889709 5.90950443 -8.125 9.25 C-10.16951019 10.29374022 -10.16951019 10.29374022 -11.125 12.25 C-11.85724996 17.83645083 -11.85724996 17.83645083 -9.41308594 22.66308594 C-7.09703817 25.2816137 -4.96722 26.91668061 -2.01953125 28.7734375 C-1.03533203 29.4025 -0.05113281 30.0315625 0.96289062 30.6796875 C1.98576172 31.32164062 3.00863281 31.96359375 4.0625 32.625 C27.03418607 47.1427515 27.03418607 47.1427515 28.875 54.25 C29.73753941 62.37602919 30.20781229 70.5998561 24.875 77.25 C19.63908924 83.32536385 12.65384179 86.69308068 4.68115234 87.46142578 C-6.90219916 88.12218126 -18.839172 88.12333586 -28.125 80.25 C-28.81640625 76.7890625 -28.81640625 76.7890625 -28.6875 72.875 C-28.66816406 71.58851563 -28.64882813 70.30203125 -28.62890625 68.9765625 C-28.10964571 65.13644966 -27.05828732 62.58040963 -25.125 59.25 C-24.465 59.25 -23.805 59.25 -23.125 59.25 C-23.08375 60.549375 -23.0425 61.84875 -23 63.1875 C-22.26234517 69.59398171 -19.34060387 74.58584713 -14.37109375 78.703125 C-8.23962219 82.33848601 -0.7102159 82.37208628 6.09375 80.70703125 C9.79496737 79.28770849 11.8101998 77.56314645 13.875 74.25 C14.81000796 70.72573922 14.68798161 67.79375783 13.875 64.25 C7.719274 56.71404985 -1.69666077 51.84352382 -9.86132812 46.80664062 C-16.89257682 42.3617049 -22.69431438 38.01296392 -26.125 30.25 C-26.91940409 23.12099707 -26.70126871 15.61904391 -23.125 9.25 C-16.84593204 1.85140829 -9.34141332 -0.24968443 0 0 Z " fill="#F7F8F8" transform="translate(456.125,123.75)"/>
<path d="M0 0 C4.25120813 3.60619724 6.36846178 8.03761661 8.8125 12.9375 C9.23208984 13.73607422 9.65167969 14.53464844 10.08398438 15.35742188 C10.47521484 16.13537109 10.86644531 16.91332031 11.26953125 17.71484375 C11.80477417 18.76853149 11.80477417 18.76853149 12.35083008 19.84350586 C13.69059315 24.29409902 11.6389445 28.1394098 9.77734375 32.17578125 C9.32528564 33.16046387 8.87322754 34.14514648 8.4074707 35.15966797 C7.92238037 36.20010254 7.43729004 37.24053711 6.9375 38.3125 C6.19149536 39.92729248 6.19149536 39.92729248 5.43041992 41.57470703 C2.35647445 48.19376141 -0.82516146 54.74520324 -4.1418457 61.24536133 C-7.043662 66.97500994 -9.65175056 72.82309307 -12.21166992 78.71240234 C-12.5182251 79.41574707 -12.82478027 80.1190918 -13.140625 80.84375 C-13.40391602 81.45412109 -13.66720703 82.06449219 -13.93847656 82.69335938 C-15.53858163 86.17031261 -17.28830259 89.57660519 -19 93 C-27.91 93 -36.82 93 -46 93 C-43.74995747 86.24987241 -43.74995747 86.24987241 -42.1337738 83.02030945 C-41.77066101 82.28988937 -41.40754822 81.5594693 -41.03343201 80.80691528 C-40.64011185 80.02589447 -40.24679169 79.24487366 -39.84155273 78.44018555 C-39.42346344 77.60210861 -39.00537415 76.76403168 -38.57461548 75.90055847 C-37.19817067 73.14397803 -35.81600669 70.39031041 -34.43359375 67.63671875 C-33.4744854 65.71969452 -32.51567305 63.80252217 -31.55714417 61.88520813 C-29.55139461 57.87527076 -27.54296938 53.86668916 -25.5324707 49.85913086 C-22.95017606 44.71158137 -20.373196 39.56139419 -17.79801846 34.41028118 C-15.82057873 30.45567297 -13.84106004 26.50210856 -11.86082649 22.5488987 C-10.9094023 20.64924046 -9.95846808 18.74933675 -9.00802422 16.84918785 C-7.68371373 14.20272391 -6.35678294 11.55759135 -5.02905273 8.9128418 C-4.63370834 8.12169983 -4.23836395 7.33055786 -3.83103943 6.51544189 C-1.11447956 1.11447956 -1.11447956 1.11447956 0 0 Z " fill="#F9FAFA" transform="translate(136,147)"/>
<path d="M0 0 C12.21 0 24.42 0 37 0 C37 0.33 37 0.66 37 1 C34.36 1.66 31.72 2.32 29 3 C28.93054332 12.72692737 28.87721083 22.45379591 28.84456348 32.1809206 C28.82889576 36.69744426 28.80763743 41.21379848 28.77368164 45.73022461 C28.74112745 50.08740597 28.72315532 54.44442418 28.71536827 58.80171776 C28.70981765 60.46554318 28.69897882 62.1293595 28.68280983 63.79311562 C28.66108749 66.12049404 28.65803083 68.44719501 28.65942383 70.7746582 C28.648638 71.46517776 28.63785217 72.15569733 28.6267395 72.86714172 C28.64513165 75.69993657 28.68770745 77.55956648 30.35331726 79.90861511 C32.49958556 81.33111425 34.47013394 81.65812621 37 82 C37 82.66 37 83.32 37 84 C24.79 84 12.58 84 0 84 C0 83.34 0 82.68 0 82 C3.465 81.505 3.465 81.505 7 81 C8.16941656 77.49175032 8.14139609 74.709028 8.16113281 71.00585938 C8.16609772 70.29822952 8.17106262 69.59059967 8.17617798 68.86152649 C8.19077575 66.52225776 8.19759635 64.18305677 8.203125 61.84375 C8.20887687 60.21854653 8.2146346 58.59334308 8.22039795 56.96813965 C8.23090007 53.56192712 8.23674841 50.15573816 8.24023438 46.74951172 C8.2457282 42.38120919 8.26977824 38.01321693 8.29820633 33.6450119 C8.31680912 30.28903281 8.32203696 26.93312897 8.32357025 23.57710266 C8.32660089 21.9663167 8.33464324 20.35553219 8.34775543 18.74479675 C8.36477286 16.49433562 8.3629471 14.24463963 8.35644531 11.99414062 C8.36009094 10.71301392 8.36373657 9.43188721 8.36749268 8.11193848 C8.25824235 5.03943025 8.25824235 5.03943025 6.64569092 3.10583496 C4.50139409 1.66495784 2.53758249 1.34291655 0 1 C0 0.67 0 0.34 0 0 Z " fill="#F2F3F4" transform="translate(573,126)"/>
<path d="M0 0 C14 0 14 0 18.25 2.75 C22.31145384 6.89519515 23.29200205 10.48324385 23.3125 16.25 C23.21047488 21.93152407 22.6531118 25.96823624 20 31 C13.68270202 37.0091371 11.9674031 36 2 36 C2 48.21 2 60.42 2 73 C1.34 72.67 0.68 72.34 0 72 C0 48.24 0 24.48 0 0 Z " fill="#0B1C29" transform="translate(647,131)"/>
<path d="M0 0 C68.97 0 137.94 0 209 0 C209 0.99 209 1.98 209 3 C140.03 3 71.06 3 0 3 C0 2.01 0 1.02 0 0 Z " fill="#E9EAEB" transform="translate(332,228)"/>
<path d="M0 0 C3.28830562 2.71642638 5.74546628 4.91282352 6.2734375 9.2421875 C6.37623451 11.90700235 6.39240784 14.35977771 6 17 C3.07766006 20.15305099 0.45913044 21.8378744 -3.8125 22.3125 C-7.7307645 21.92835642 -9.21293267 20.70743683 -12 18 C-13.84862688 14.30274625 -13.47587094 10.03538558 -13 6 C-9.5159282 0.3093494 -6.58106189 -0.66926053 0 0 Z " fill="#091926" transform="translate(598,227)"/>
<path d="M0 0 C3.43543135 3.14123695 4.51351588 6.68984516 6 11 C6.42925781 12.1653125 6.85851562 13.330625 7.30078125 14.53125 C11 24.61207795 11 24.61207795 11 28 C3.74 28 -3.52 28 -11 28 C-9.01563558 18.0781779 -4.72369945 8.90467599 0 0 Z " fill="#0D1C2A" transform="translate(373,153)"/>
<path d="M0 0 C2.43119623 1.87015094 3.64069173 3.28138345 5 6 C5.44080589 10.3148115 5.47056025 13.94684134 3.6875 17.9375 C1.20407821 20.9727933 -0.47533369 21.9319877 -4.375 22.4375 C-8 22 -8 22 -10.9375 20.25 C-14.06825994 15.31668131 -13.95736539 10.68141429 -13 5 C-9.55430885 -0.59924811 -6.09433527 -0.87061932 0 0 Z " fill="#081926" transform="translate(702,227)"/>
<path d="M0 0 C1.32 0.33 2.64 0.66 4 1 C5.25827326 3.35742063 6.24838186 5.52170381 7.1875 8 C8.60394113 12.31576713 8.60394113 12.31576713 11 16 C13.31 10.72 15.62 5.44 18 0 C19.32 0.33 20.64 0.66 22 1 C22 7.6 22 14.2 22 21 C21.34 21 20.68 21 20 21 C20 15.72 20 10.44 20 5 C19.34 5 18.68 5 18 5 C17.81824219 5.56847656 17.63648438 6.13695312 17.44921875 6.72265625 C15.85915366 11.60701003 14.09540222 16.31029027 12 21 C11.01 21 10.02 21 9 21 C7.02 16.38 5.04 11.76 3 7 C2.67 11.62 2.34 16.24 2 21 C1.34 21 0.68 21 0 21 C0 14.07 0 7.14 0 0 Z " fill="#E0E2E4" transform="translate(612,227)"/>
<path d="M0 0 C3 1 3 1 3.9831543 2.71826172 C4.3994812 3.81291748 4.3994812 3.81291748 4.82421875 4.9296875 C5.13037109 5.72503906 5.43652344 6.52039063 5.75195312 7.33984375 C6.06068359 8.17644531 6.36941406 9.01304687 6.6875 9.875 C7.00783203 10.70386719 7.32816406 11.53273437 7.65820312 12.38671875 C10 18.56826359 10 18.56826359 10 22 C9.01 21.67 8.02 21.34 7 21 C6.67 19.35 6.34 17.7 6 16 C2.7 16 -0.6 16 -4 16 C-4.66 17.98 -5.32 19.96 -6 22 C-6.66 22 -7.32 22 -8 22 C-2.38297872 2.38297872 -2.38297872 2.38297872 0 0 Z " fill="#E2E3E5" transform="translate(720,227)"/>
<path d="M0 0 C3.28830562 2.71642638 5.74546628 4.91282352 6.2734375 9.2421875 C6.37623451 11.90700235 6.39240784 14.35977771 6 17 C3.07766006 20.15305099 0.45913044 21.8378744 -3.8125 22.3125 C-7.7307645 21.92835642 -9.21293267 20.70743683 -12 18 C-13.84862688 14.30274625 -13.47587094 10.03538558 -13 6 C-9.5159282 0.3093494 -6.58106189 -0.66926053 0 0 Z M-8.3125 3.375 C-10.91085694 7.41688857 -10.76782863 11.33098149 -10 16 C-8.04210936 19.04560766 -6.99796235 19.77545847 -3.5 20.5625 C-0.83681859 20.16390776 -0.83681859 20.16390776 1.3125 18.0625 C3.57291734 13.96026112 3.84782913 10.5902668 3 6 C1.49720824 3.3284596 1.49720824 3.3284596 -1 2 C-4.20383448 1.3592331 -5.50869499 1.7078727 -8.3125 3.375 Z " fill="#E2E4E6" transform="translate(598,227)"/>
<path d="M0 0 C2.43119623 1.87015094 3.64069173 3.28138345 5 6 C5.44080589 10.3148115 5.47056025 13.94684134 3.6875 17.9375 C1.20407821 20.9727933 -0.47533369 21.9319877 -4.375 22.4375 C-8 22 -8 22 -10.9375 20.25 C-14.06825994 15.31668131 -13.95736539 10.68141429 -13 5 C-9.55430885 -0.59924811 -6.09433527 -0.87061932 0 0 Z M-9.375 3.4375 C-11.78885746 7.24396753 -11.75533533 10.61594032 -11 15 C-9.66983836 18.22838773 -9.66983836 18.22838773 -7 20 C-3.36760187 20.1716367 -3.36760187 20.1716367 0 19 C2.22264871 15.66602694 2.29675463 14.40485109 2.3125 10.5 C2.32925781 9.5409375 2.34601562 8.581875 2.36328125 7.59375 C2.20650283 4.97947876 2.20650283 4.97947876 0.6640625 3.18359375 C-2.73930217 0.76289071 -5.96070782 1.37095473 -9.375 3.4375 Z " fill="#DFE1E3" transform="translate(702,227)"/>
<path d="M0 0 C4 1 4 1 6.140625 4.37890625 C6.85759264 5.76637141 7.56025771 7.16130132 8.25 8.5625 C8.61351562 9.27341797 8.97703125 9.98433594 9.3515625 10.71679688 C10.24665729 12.47165376 11.12496182 14.2350565 12 16 C12.33 10.72 12.66 5.44 13 0 C13.66 0 14.32 0 15 0 C15 6.93 15 13.86 15 21 C11 20 11 20 8.859375 16.83984375 C8.14296756 15.54633032 7.44025765 14.24515477 6.75 12.9375 C6.38648438 12.27427734 6.02296875 11.61105469 5.6484375 10.92773438 C4.75383252 9.29154895 3.87533933 7.64657276 3 6 C2.67 10.95 2.34 15.9 2 21 C1.34 21 0.68 21 0 21 C0 14.07 0 7.14 0 0 Z " fill="#DEE0E3" transform="translate(737,227)"/>
<path d="M0 0 C0.99 0 1.98 0 3 0 C3 2.97 3 5.94 3 9 C6.3 9 9.6 9 13 9 C13 6.03 13 3.06 13 0 C13.66 0 14.32 0 15 0 C15 6.93 15 13.86 15 21 C14.34 21 13.68 21 13 21 C13 17.7 13 14.4 13 11 C9.7 11 6.4 11 3 11 C3 14.63 3 18.26 3 22 C2.01 21.67 1.02 21.34 0 21 C0 14.07 0 7.14 0 0 Z " fill="#BABFC3" transform="translate(562,227)"/>
<path d="M0 0 C0.66 0.33 1.32 0.66 2 1 C1.67 1.99 1.34 2.98 1 4 C-1.97 3.505 -1.97 3.505 -5 3 C-5.33 4.65 -5.66 6.3 -6 8 C-5.071875 8.268125 -4.14375 8.53625 -3.1875 8.8125 C1.40883978 10.52486188 1.40883978 10.52486188 3 13 C3.4375 16 3.4375 16 3 19 C0.7370146 21.611137 -0.62424982 21.96165814 -4.0625 22.3125 C-7 22 -7 22 -10 20 C-10 19.34 -10 18.68 -10 18 C-7.98177083 18.29296875 -5.96354167 18.5859375 -3.9453125 18.87890625 C-1.91859333 19.1684297 -1.91859333 19.1684297 0 18 C0 16.68 0 15.36 0 14 C-1.71183486 12.45918397 -1.71183486 12.45918397 -3.9375 11.3125 C-4.66839844 10.89613281 -5.39929688 10.47976562 -6.15234375 10.05078125 C-6.76207031 9.70402344 -7.37179687 9.35726562 -8 9 C-8.33 8.67 -8.66 8.34 -9 8 C-8.6875 4.5 -8.6875 4.5 -8 1 C-5.26094655 -0.36952673 -3.02912668 -0.12621361 0 0 Z " fill="#E2E5E6" transform="translate(769,227)"/>
<path d="M0 0 C3.63 0 7.26 0 11 0 C11 0.66 11 1.32 11 2 C8.03 2 5.06 2 2 2 C2 4.31 2 6.62 2 9 C4.64 9 7.28 9 10 9 C10 9.66 10 10.32 10 11 C7.36 11 4.72 11 2 11 C2 13.97 2 16.94 2 20 C5.3 20 8.6 20 12 20 C12 20.66 12 21.32 12 22 C8.04 22 4.08 22 0 22 C0 14.74 0 7.48 0 0 Z " fill="#D9DBDD" transform="translate(643,227)"/>
<path d="M0 0 C0.99 0 1.98 0 3 0 C3 6.6 3 13.2 3 20 C5.64 20 8.28 20 11 20 C11 20.33 11 20.66 11 21 C7.37 21 3.74 21 0 21 C0 14.07 0 7.14 0 0 Z " fill="#C6CACD" transform="translate(673,227)"/>
<path d="M0 0 C2.9375 1.8125 2.9375 1.8125 5 5 C5.40594933 8.70558872 5.29247067 12.2888722 5 16 C4.34 16 3.68 16 3 16 C2.96261719 15.31292969 2.92523437 14.62585938 2.88671875 13.91796875 C2.82097656 13.01691406 2.75523437 12.11585938 2.6875 11.1875 C2.62949219 10.29417969 2.57148437 9.40085938 2.51171875 8.48046875 C1.92658111 5.64411453 1.35020393 4.65993424 -1 3 C-4.55663226 2.67451168 -4.55663226 2.67451168 -8 4 C-9.57070628 6.29312171 -10.16516333 8.29905783 -11 11 C-11.33 11 -11.66 11 -12 11 C-12.3125 7.75 -12.3125 7.75 -12 4 C-8.47224727 -0.16916232 -5.31877021 -0.85480236 0 0 Z " fill="#EBECED" transform="translate(598,227)"/>
<path d="M0 0 C0.66 0 1.32 0 2 0 C2 6.93 2 13.86 2 21 C0.68 20.67 -0.64 20.34 -2 20 C-2.33 18.35 -2.66 16.7 -3 15 C-2.01 15.495 -2.01 15.495 -1 16 C-0.67 10.72 -0.34 5.44 0 0 Z " fill="#F6F6F7" transform="translate(750,227)"/>
<path d="M0 0 C0.66 0 1.32 0 2 0 C2 6.93 2 13.86 2 21 C1.34 21 0.68 21 0 21 C0 17.7 0 14.4 0 11 C-3.63 11 -7.26 11 -11 11 C-11 10.67 -11 10.34 -11 10 C-7.37 10 -3.74 10 0 10 C0 6.7 0 3.4 0 0 Z " fill="#EDEEEF" transform="translate(575,227)"/>
<path d="M0 0 C0.66 0 1.32 0 2 0 C1.96519531 0.74765625 1.93039062 1.4953125 1.89453125 2.265625 C1.86746094 3.25046875 1.84039063 4.2353125 1.8125 5.25 C1.77769531 6.22453125 1.74289062 7.1990625 1.70703125 8.203125 C2.04386281 11.41874358 2.75427574 12.71190358 5 15 C7.59855733 15.8042208 7.59855733 15.8042208 10 16 C10 16.33 10 16.66 10 17 C4.04296875 17.390625 4.04296875 17.390625 2 17 C-0.4421345 14.72176715 -0.96126542 13.35183913 -1.328125 10.01953125 C-1.30234375 8.96121094 -1.2765625 7.90289062 -1.25 6.8125 C-1.23453125 5.74644531 -1.2190625 4.68039063 -1.203125 3.58203125 C-1 1 -1 1 0 0 Z " fill="#EAEBEC" transform="translate(690,231)"/>
<path d="M0 0 C0.66 0 1.32 0 2 0 C2.99 3.3 3.98 6.6 5 10 C2.36 10 -0.28 10 -3 10 C-2.01 6.7 -1.02 3.4 0 0 Z " fill="#26343F" transform="translate(720,231)"/>
<path d="M0 0 C0.33 0 0.66 0 1 0 C1.64199112 3.68668166 2.11322292 7.25286059 2 11 C0 13.6875 0 13.6875 -3 15 C-6.8125 15.25 -6.8125 15.25 -10 15 C-10 14.67 -10 14.34 -10 14 C-8.02 14 -6.04 14 -4 14 C-4 13.34 -4 12.68 -4 12 C-3.51917969 11.56042969 -3.03835938 11.12085938 -2.54296875 10.66796875 C-0.56812085 8.53313317 -0.52011907 7.17764321 -0.3125 4.3125 C-0.24675781 3.50425781 -0.18101562 2.69601563 -0.11328125 1.86328125 C-0.07589844 1.24839844 -0.03851562 0.63351563 0 0 Z " fill="#BEC3C7" transform="translate(704,234)"/>
<path d="M0 0 C1.25664978 2.90600261 2 4.79604584 2 8 C1.01 7.67 0.02 7.34 -1 7 C-1.33 5.35 -1.66 3.7 -2 2 C-5.3 2 -8.6 2 -12 2 C-12 1.67 -12 1.34 -12 1 C-10.37512529 0.83211627 -8.75009558 0.66573213 -7.125 0.5 C-6.22007812 0.4071875 -5.31515625 0.314375 -4.3828125 0.21875 C-2 0 -2 0 0 0 Z " fill="#B9BEC2" transform="translate(728,241)"/>
<path d="M0 0 C1.875 0.125 1.875 0.125 4 1 C5.375 3.875 5.375 3.875 6 7 C5.01 8.485 5.01 8.485 4 10 C3.67 8.35 3.34 6.7 3 5 C2.34 5 1.68 5 1 5 C0.67 3.35 0.34 1.7 0 0 Z " fill="#D2D5D8" transform="translate(612,227)"/>
<path d="M0 0 C0.33 0 0.66 0 1 0 C1.08121924 1.60332791 1.13929134 3.20784026 1.1875 4.8125 C1.22230469 5.70582031 1.25710938 6.59914062 1.29296875 7.51953125 C1 10 1 10 -0.32421875 11.82421875 C-2 13 -2 13 -5 13 C-4.34 11.35 -3.68 9.7 -3 8 C-2.01 8.33 -1.02 8.66 0 9 C0 6.03 0 3.06 0 0 Z " fill="#A3A9AE" transform="translate(603,234)"/>
<path d="M0 0 C1.485 0.99 1.485 0.99 3 2 C3.39507893 6.34586828 3.45331002 8.32003497 1 12 C-0.26237731 9.47524538 -0.09856404 7.68799534 -0.0625 4.875 C-0.05347656 3.96492187 -0.04445313 3.05484375 -0.03515625 2.1171875 C-0.02355469 1.41851562 -0.01195312 0.71984375 0 0 Z " fill="#B4B9BE" transform="translate(585,233)"/>
<path d="M0 0 C0.99 0.33 1.98 0.66 3 1 C3.38133299 2.9914056 3.71325582 4.99279077 4 7 C3 8 3 8 1.15234375 8.09765625 C-0.8984375 8.06510417 -2.94921875 8.03255208 -5 8 C-5 7.67 -5 7.34 -5 7 C-2.69 7 -0.38 7 2 7 C1.67 6.401875 1.34 5.80375 1 5.1875 C0 3 0 3 0 0 Z " fill="#EDEEEF" transform="translate(723,234)"/>
<path d="M0 0 C0.33 0.66 0.66 1.32 1 2 C1.66 2.33 2.32 2.66 3 3 C2.34 3 1.68 3 1 3 C0.67 4.98 0.34 6.96 0 9 C-0.99 9.33 -1.98 9.66 -3 10 C-2.01 6.7 -1.02 3.4 0 0 Z " fill="#D3D6D8" transform="translate(715,239)"/>
<path d="M0 0 C2 2 2 2 2.1953125 4.1640625 C2.16050781 5.38222656 2.16050781 5.38222656 2.125 6.625 C2.10695313 7.44226563 2.08890625 8.25953125 2.0703125 9.1015625 C2.04710937 9.72804687 2.02390625 10.35453125 2 11 C1.34 11 0.68 11 0 11 C-0.19406478 9.35492782 -0.38007935 7.70890406 -0.5625 6.0625 C-0.66691406 5.14597656 -0.77132812 4.22945312 -0.87890625 3.28515625 C-0.91886719 2.53105469 -0.95882812 1.77695313 -1 1 C-0.67 0.67 -0.34 0.34 0 0 Z " fill="#EAECED" transform="translate(705,231)"/>
<path d="M0 0 C0.99 0.33 1.98 0.66 3 1 C1 4 -1 7 -3 10 C-3.36923077 3.47692308 -3.36923077 3.47692308 -1.5 1.0625 C-1.005 0.711875 -0.51 0.36125 0 0 Z " fill="#E2E4E6" transform="translate(589,228)"/>
<path d="M0 0 C2.97 0.99 5.94 1.98 9 3 C9 3.33 9 3.66 9 4 C3.375 4.25 3.375 4.25 0 2 C0 1.34 0 0.68 0 0 Z " fill="#CBCFD2" transform="translate(759,245)"/>
<path d="M0 0 C2.97 0.99 5.94 1.98 9 3 C9 3.33 9 3.66 9 4 C7.72125 4.061875 6.4425 4.12375 5.125 4.1875 C4.40570312 4.22230469 3.68640625 4.25710937 2.9453125 4.29296875 C2.30335938 4.19628906 1.66140625 4.09960938 1 4 C0.34 3.01 -0.32 2.02 -1 1 C-0.67 0.67 -0.34 0.34 0 0 Z " fill="#E3E5E7" transform="translate(691,244)"/>
<path d="M0 0 C0.33 0 0.66 0 1 0 C1 2.31 1 4.62 1 7 C-0.98 7.99 -0.98 7.99 -3 9 C-2.01 6.03 -1.02 3.06 0 0 Z " fill="#1F2E3A" transform="translate(629,234)"/>
<path d="M0 0 C0.33 0 0.66 0 1 0 C0.67 2.64 0.34 5.28 0 8 C-0.99 8 -1.98 8 -3 8 C-1.125 1.125 -1.125 1.125 0 0 Z " fill="#DCDEE0" transform="translate(774,185)"/>
<path d="M0 0 C2.89932357 2.39509338 3.50168276 4.31245243 4 8 C3.01 7.67 2.02 7.34 1 7 C-0.1875 3.9375 -0.1875 3.9375 -1 1 C-0.67 0.67 -0.34 0.34 0 0 Z " fill="#2F3944" transform="translate(373,153)"/>
</svg>
