<?xml version="1.0" encoding="UTF-8"?>
<svg version="1.1" xmlns="http://www.w3.org/2000/svg" width="600" height="600">
<path d="M0 0 C16.5 0 33 0 50 0 C52.68125 5.506875 55.3625 11.01375 58.125 16.6875 C68.12973786 37.22796076 78.16316071 57.75434361 88.20166016 78.27832031 C92.3449002 86.74951361 96.4864013 95.22155703 100.62802124 103.69354248 C102.91860842 108.37906372 105.20931004 113.06452901 107.5 117.75 C108.41666721 119.62499973 109.33333388 121.49999973 110.25 123.375 C110.70375 124.303125 111.1575 125.23125 111.625 126.1875 C115.74999999 134.62499999 115.74999999 134.62499999 117.12496948 137.43743896 C118.04173641 139.31264313 118.95850481 141.18784658 119.87527466 143.06304932 C122.16541922 147.74741976 124.45553851 152.43180255 126.74560547 157.11621094 C131.35327886 166.54129068 135.96138709 175.96615743 140.5703125 185.390625 C145.59617301 195.66781176 150.62031953 205.94583538 155.64343262 216.22436523 C157.01110627 219.02272424 158.37906552 221.82094349 159.74707031 224.61914062 C176.86099756 259.62826404 176.86099756 259.62826404 183.25 272.9375 C183.65057617 273.76572266 184.05115234 274.59394531 184.46386719 275.44726562 C187 280.76443173 187 280.76443173 187 283 C172.48 283 157.96 283 143 283 C125.87082883 248.87869103 125.87082883 248.87869103 119.37890625 235.18383789 C114.8837891 225.71400251 110.28480104 216.29550954 105.6875 206.875 C100.10228505 195.42749713 94.52776051 183.97537169 89 172.5 C83.53231837 161.15082254 78.02204269 149.82281421 72.5 138.5 C66.38235125 125.95554432 60.28400311 113.40238772 54.22680664 100.82861328 C51.00939751 94.152713 47.77898292 87.48340949 44.53515625 80.8203125 C44.15307007 80.03515259 43.77098389 79.24999268 43.37731934 78.44104004 C41.51030008 74.604691 39.64187276 70.76903966 37.77099609 66.93457031 C34.0698351 59.33767845 30.43651012 51.7215921 27 44 C24.49270866 48.98923287 21.98843844 53.97996828 19.48657227 58.97192383 C18.64098139 60.6581792 17.79466488 62.34407096 16.94750977 64.02954102 C11.57451838 74.72099194 6.31804042 85.4605189 1.17366028 96.26387024 C-3.37778043 105.81560627 -8.02471852 115.31936254 -12.68612671 124.81781006 C-15.1982804 129.93717103 -17.706532 135.05844328 -20.21484375 140.1796875 C-20.71315201 141.1969693 -21.21146027 142.2142511 -21.72486877 143.26235962 C-26.06424726 152.1242857 -30.38141525 160.99685766 -34.6875 169.875 C-40.71428629 182.29895092 -46.75685663 194.71508678 -52.8125 207.125 C-53.43913544 208.40920837 -53.43913544 208.40920837 -54.07843018 209.71936035 C-56.20118085 214.06951225 -58.32415762 218.41955375 -60.44726562 222.76953125 C-64.23726481 230.53486673 -68.02602762 238.30080535 -71.81454468 246.06686401 C-72.64314766 247.76538564 -73.47178103 249.46389243 -74.30044556 251.16238403 C-78.98367801 260.76153384 -83.66422047 270.36198506 -88.33984375 279.96484375 C-88.77555191 280.85961426 -89.21126007 281.75438477 -89.66017151 282.67626953 C-91.74412866 286.95595127 -93.82766518 291.23583674 -95.91040039 295.51611328 C-96.65900065 297.05371886 -97.40761636 298.59131692 -98.15625 300.12890625 C-98.48765488 300.81041245 -98.81905975 301.49191864 -99.1605072 302.19407654 C-101.40979002 306.81232944 -103.70240692 311.40481383 -106 316 C-80.26 316.33 -54.52 316.66 -28 317 C-28.71487778 320.57438892 -29.15241977 322.68144102 -30.65820312 325.76464844 C-30.99525269 326.46176941 -31.33230225 327.15889038 -31.67956543 327.87713623 C-32.22489929 328.98209442 -32.22489929 328.98209442 -32.78125 330.109375 C-33.15479614 330.87679016 -33.52834229 331.64420532 -33.91320801 332.43487549 C-34.70065818 334.04986794 -35.49087759 335.66351274 -36.28369141 337.27587891 C-37.50126688 339.752577 -38.71031715 342.23329391 -39.91796875 344.71484375 C-40.68440383 346.28409456 -41.45131431 347.85311329 -42.21875 349.421875 C-42.58230591 350.16661072 -42.94586182 350.91134644 -43.32043457 351.6786499 C-45.88304686 356.88304686 -45.88304686 356.88304686 -47 358 C-48.64490549 358.09608663 -50.29395691 358.12187787 -51.94166565 358.12025452 C-53.01163788 358.12162918 -54.08161011 358.12300385 -55.18400574 358.12442017 C-56.95992851 358.11902725 -56.95992851 358.11902725 -58.77172852 358.11352539 C-60.63000275 358.11374443 -60.63000275 358.11374443 -62.52581787 358.1139679 C-65.93269833 358.11338892 -69.33951884 358.10835959 -72.74638867 358.10139394 C-76.30316826 358.09515993 -79.85994858 358.09455656 -83.41673279 358.09336853 C-90.15636582 358.09025535 -96.89598271 358.08204215 -103.63560861 358.07201904 C-111.30658398 358.06085748 -118.97756011 358.05534735 -126.64854157 358.05032361 C-142.43237041 358.03985952 -158.21618313 358.02226035 -174 358 C-172.59023304 354.8443337 -171.1769927 351.6902341 -169.76318359 348.53637695 C-169.36920883 347.65437874 -168.97523407 346.77238052 -168.56932068 345.86365509 C-164.82345432 337.51565227 -160.76955418 329.34294455 -156.625 321.1875 C-151.3919338 310.8645176 -146.29683543 300.48734668 -141.32122803 290.0375824 C-136.4462868 279.81054394 -131.45756352 269.64044508 -126.4593811 259.47320557 C-123.71098011 253.88196154 -120.966742 248.28867535 -118.22265625 242.6953125 C-117.68132553 241.59198578 -117.13999481 240.48865906 -116.58226013 239.35189819 C-112.13664445 230.28706671 -107.71628858 221.21021173 -103.3125 212.125 C-96.96354408 199.0288809 -90.5827996 185.94855139 -84.1875 172.875 C-82.30856457 169.03386844 -80.42964078 165.19273119 -78.55078125 161.3515625 C-78.08629074 160.40195648 -77.62180023 159.45235046 -77.14323425 158.47396851 C-72.3805892 148.7358483 -67.62670948 138.99345993 -62.875 129.25 C-62.46631683 128.41200867 -62.05763367 127.57401733 -61.63656616 126.71063232 C-59.58018127 122.493996 -57.52394072 118.27728931 -55.46777344 114.06054688 C-52.14680115 107.25013526 -48.82475034 100.44024984 -45.50268555 93.63037109 C-43.83993987 90.22191463 -42.17734902 86.81338271 -40.51489258 83.40478516 C-36.70184104 75.58696466 -32.88793856 67.76956346 -29.07064819 59.95381165 C-19.32323623 39.99620761 -9.61133049 20.02360518 0 0 Z " fill="#000036" transform="translate(229,101)"/>
<path d="M0 0 C15.84 0 31.68 0 48 0 C62.86360826 29.59085315 62.86360826 29.59085315 69.45361328 43.48120117 C74.1275733 53.31364779 78.90880567 63.09317322 83.6875 72.875 C85.43636593 76.45564714 87.18506678 80.03637483 88.93359375 83.6171875 C89.36449814 84.49962631 89.79540253 85.38206512 90.23936462 86.29124451 C94.25667449 94.52083305 98.25714489 102.75852326 102.25 111 C102.57278931 111.66620361 102.89557861 112.33240723 103.22814941 113.01879883 C104.84204273 116.34993922 106.45556035 119.68126139 108.06884766 123.01269531 C111.35636918 129.80111365 114.64696121 136.58804385 117.9375 143.375 C118.26658356 144.05379211 118.59566711 144.73258423 118.9347229 145.4319458 C126.23488815 160.48938757 133.54633411 175.54134464 140.85888672 190.59277344 C144.05257981 197.1664508 147.24551499 203.74049629 150.43850708 210.31451416 C152.20897365 213.9596912 153.97948931 217.60484439 155.75 221.25 C156.45833357 222.70833322 157.1666669 224.16666655 157.875 225.625 C158.225625 226.346875 158.57625 227.06875 158.9375 227.8125 C179.12500001 269.37500002 179.12500001 269.37500002 180.18739319 271.56228638 C180.89607598 273.02133499 181.60476535 274.48038039 182.3134613 275.93942261 C184.07900189 279.57428609 185.84442976 283.20920423 187.60961914 286.84423828 C191.23589641 294.31146281 194.86430463 301.77764205 198.49609375 309.2421875 C202.67134186 317.82460097 206.83961159 326.41037338 211 335 C211.56493164 336.1657959 212.12986328 337.3315918 212.71191406 338.53271484 C214.16687297 341.54038066 215.6161578 344.55068318 217.0625 347.5625 C217.4742749 348.41312012 217.8860498 349.26374023 218.31030273 350.14013672 C221 355.76790285 221 355.76790285 221 358 C178.76 358 136.52 358 93 358 C89.04 349.75 85.08 341.5 81 333 C78.07255718 327.1803484 78.07255718 327.1803484 75.109375 321.37890625 C74 319 74 319 74 317 C101.39 316.67 128.78 316.34 157 316 C152.24400391 306.49848145 147.48800781 296.99696289 142.58789062 287.20751953 C127.38761295 256.83903411 112.19125773 226.46858746 96.99738356 196.09689779 C94.63907386 191.38277993 92.28072933 186.66867951 89.92236328 181.95458984 C89.45283676 181.01606143 88.98331024 180.07753301 88.49955565 179.11056434 C80.88744854 163.89506322 73.2725179 148.68097688 65.65655094 133.46740748 C57.847472 117.86792346 50.04141046 102.26693231 42.23817396 86.66452491 C37.41937376 77.02967481 32.59819698 67.3960215 27.77401578 57.7638645 C24.47039935 51.16716753 21.16970323 44.56901483 17.87134278 37.96968831 C15.96557514 34.15686644 14.05848557 30.34472044 12.14793968 26.53429031 C10.40141938 23.05092554 8.65854531 19.56576269 6.91864461 16.079087 C6.28613476 14.81321671 5.65225012 13.54803229 5.01690751 12.28358139 C4.15824914 10.574207 3.30492481 8.86215622 2.45192719 7.14995003 C1.97499845 6.196852 1.49806972 5.24375397 1.00668859 4.26177418 C0 2 0 2 0 0 Z " fill="#000036" transform="translate(315,101)"/>
<path d="M0 0 C0.66 0 1.32 0 2 0 C4.88630475 5.59512254 7.75059467 11.20110821 10.59985352 16.81518555 C11.5717034 18.72368394 12.54856456 20.6296391 13.53051758 22.53295898 C14.94116317 25.2693403 16.33353087 28.01436326 17.72265625 30.76171875 C18.16529312 31.61086349 18.60792999 32.46000824 19.0639801 33.33488464 C22.0112812 39.22559588 22.0112812 39.22559588 21.96142578 42.64794922 C20.6866336 45.76662566 19.35804515 48.83730335 17.89453125 51.87109375 C17.57913391 52.53656723 17.26373657 53.20204071 16.93878174 53.88768005 C15.90167522 56.07336326 14.85701456 58.2553487 13.8125 60.4375 C13.08130871 61.97576962 12.35076733 63.51434832 11.62084961 65.05322266 C10.50187097 67.41218796 9.3825125 69.77096352 8.26112366 72.12878418 C4.82262294 79.35955648 1.43790676 86.6146166 -1.9375 93.875 C-7.92945436 106.74120229 -13.98200788 119.57839431 -20.05249023 132.40771484 C-20.56718872 133.4958976 -20.56718872 133.4958976 -21.09228516 134.60606384 C-21.7186219 135.93010271 -22.34528191 137.25398875 -22.97241211 138.57765198 C-26.3442379 145.70499368 -29.66550879 152.85466169 -33 160 C-48.51 160 -64.02 160 -80 160 C-78.52567851 155.57703554 -77.05577162 151.8631204 -74.99414062 147.74536133 C-74.69779724 147.15077621 -74.40145386 146.5561911 -74.09613037 145.94358826 C-73.12006145 143.98776298 -72.13827844 142.03487014 -71.15625 140.08203125 C-70.46532392 138.70137438 -69.77469632 137.32056811 -69.08435059 135.93962097 C-67.63422803 133.04093839 -66.18143677 130.14361493 -64.7265625 127.24731445 C-62.8914486 123.59386265 -61.06147152 119.93786991 -59.23329067 116.28094482 C-46.65228393 91.11997849 -46.65228393 91.11997849 -41.09765625 80.70703125 C-36.3716082 71.84115776 -31.88830584 62.85608426 -27.40234375 53.8671875 C-27.01951359 53.10010405 -26.63668343 52.33302059 -26.24225235 51.54269218 C-23.47116123 45.98820882 -20.70401496 40.43176366 -17.9375 34.875 C-15.13763289 29.25159001 -12.33640333 23.6288664 -9.53186226 18.0077858 C-8.41730052 15.77218793 -7.30515008 13.53540149 -6.19309998 11.29855347 C-5.51809138 9.94490852 -4.84297254 8.59131854 -4.16772461 7.23779297 C-3.85975449 6.6166864 -3.55178436 5.99557983 -3.23448181 5.35565186 C-1.11384299 1.11384299 -1.11384299 1.11384299 0 0 Z " fill="#000036" transform="translate(255,224)"/>
</svg>
