<?xml version="1.0" encoding="UTF-8"?>
<svg version="1.1" xmlns="http://www.w3.org/2000/svg" width="900" height="400">
<path d="M0 0 C10.89 0 21.78 0 33 0 C34.72283203 3.44759766 34.72283203 3.44759766 36.48046875 6.96484375 C39.01406708 12.03367309 41.55124068 17.10067604 44.09503174 22.16439819 C51.24051338 36.38875941 58.36299438 50.61606639 65.17895508 65.00219727 C68.64223876 72.29877074 72.24393775 79.51988773 75.87646484 86.73339844 C79.64546866 94.23924962 83.27126118 101.80825151 86.875 109.39453125 C90.00675642 115.96944033 93.22477229 122.49548616 96.5 129 C101.6680084 139.27086612 106.64342614 149.62691403 111.57666016 160.01220703 C113.08931927 163.18749387 114.61189882 166.35787983 116.13671875 169.52734375 C116.6471875 170.58961182 117.15765625 171.65187988 117.68359375 172.74633789 C118.67054515 174.79954928 119.65878397 176.85214242 120.6484375 178.90405273 C121.30779297 180.27799194 121.30779297 180.27799194 121.98046875 181.6796875 C122.37129639 182.49163574 122.76212402 183.30358398 123.16479492 184.14013672 C124 186 124 186 124 187 C114.1 187 104.2 187 94 187 C90.6399389 180.15849205 87.28063831 173.31661997 83.9230957 166.47387695 C82.78614146 164.15726671 81.64878659 161.84085304 80.51098633 159.5246582 C74.25487225 146.78850374 68.03775386 134.03629361 61.93200684 121.22731018 C57.81340955 112.59150673 53.62589389 103.99031433 49.42092896 95.39630127 C47.27017564 90.99986073 45.12337401 86.60149137 42.9765625 82.203125 C42.55200272 81.33334015 42.12744293 80.4635553 41.6900177 79.56741333 C38.09484007 72.19953346 34.51040314 64.82651853 30.9425354 57.44537354 C30.09623653 55.69478478 29.24870529 53.94479196 28.40112305 52.19482422 C25.93801538 47.09209197 23.50183503 41.97767156 21.12109375 36.8359375 C20.50705688 35.51021729 20.50705688 35.51021729 19.88061523 34.15771484 C19 32 19 32 19 30 C18.34 30 17.68 30 17 30 C16.77973145 30.76272217 16.55946289 31.52544434 16.33251953 32.3112793 C14.49144027 37.40781036 12.08530471 42.16861049 9.6796875 47.01953125 C9.14889587 48.09774643 8.61810425 49.17596161 8.07122803 50.28684998 C6.63917538 53.19461477 5.20390242 56.1007626 3.76734161 59.00630188 C2.2694509 62.03819836 0.77607436 65.07231507 -0.71728516 68.10644531 C-1.01372358 68.70870752 -1.31016201 69.31096973 -1.61558342 69.93148232 C-2.21216439 71.14355426 -2.80872906 72.35563424 -3.40527725 73.56772232 C-4.29586489 75.37685432 -5.1869256 77.18575264 -6.07809448 78.99459839 C-10.5445418 88.0633692 -14.97647174 97.14812689 -19.375 106.25 C-20.61557434 108.81525472 -21.85651352 111.38033275 -23.09765625 113.9453125 C-23.40600906 114.58263809 -23.71436188 115.21996368 -24.03205872 115.87660217 C-28.2724795 124.63566554 -32.54388545 133.37965284 -36.8125 142.125 C-37.22859528 142.97748322 -37.64469055 143.82996643 -38.07339478 144.70828247 C-38.69605728 145.98395584 -38.69605728 145.98395584 -39.33129883 147.28540039 C-40.17399491 149.01187955 -41.01668695 150.73836067 -41.859375 152.46484375 C-42.2786174 153.3237471 -42.6978598 154.18265045 -43.12980652 155.06758118 C-46.21982717 161.39902357 -49.30612771 167.73227137 -52.390625 174.06640625 C-52.82771286 174.96393616 -53.26480072 175.86146606 -53.71513367 176.78619385 C-55.40959413 180.26580771 -57.10398382 183.74545582 -58.79776001 187.22540283 C-59.94954752 189.59180209 -61.10170116 191.95802279 -62.25390625 194.32421875 C-62.59049255 195.0160878 -62.92707886 195.70795685 -63.27386475 196.42079163 C-63.59026917 197.07043381 -63.90667358 197.72007599 -64.23266602 198.3894043 C-64.50321304 198.94524704 -64.77376007 199.50108978 -65.05250549 200.07377625 C-66.3552964 202.72230537 -67.68000222 205.36000445 -69 208 C-52.17 208.33 -35.34 208.66 -18 209 C-21.1144823 218.3434469 -25.7656453 227.10785514 -30 236 C-57.72 236 -85.44 236 -114 236 C-112.66877994 232.00633983 -111.42738883 228.58192664 -109.62573242 224.85498047 C-109.15629715 223.87997589 -108.68686188 222.90497131 -108.20320129 221.90042114 C-107.69657455 220.85820404 -107.18994781 219.81598694 -106.66796875 218.7421875 C-106.13640671 217.64204315 -105.60484467 216.5418988 -105.05717468 215.40841675 C-99.73313667 204.40710598 -94.35102831 193.43412381 -88.9564209 182.46728516 C-86.10483896 176.66968262 -83.25734554 170.87007324 -80.41015625 165.0703125 C-79.85061249 163.93055969 -79.29106873 162.79080688 -78.71456909 161.61651611 C-74.20288975 152.42235355 -69.71666085 143.2161039 -65.25 134 C-58.90200153 120.90340217 -52.52072155 107.82336031 -46.125 94.75 C-30.68964264 63.19585007 -15.31469072 31.61289368 0 0 Z " fill="#000036" transform="translate(136,83)"/>
<path d="M0 0 C10.56 0 21.12 0 32 0 C33.918125 3.980625 35.83625 7.96125 37.8125 12.0625 C43.63801695 24.13900481 49.49861313 36.19817538 55.375 48.25 C61.30429546 60.41057253 67.22583823 72.57477789 73.125 84.75 C73.44822235 85.4170697 73.7714447 86.0841394 74.10446167 86.77142334 C74.4276236 87.43837219 74.75078552 88.10532104 75.08374023 88.79248047 C75.73681259 90.14030133 76.38988876 91.48812034 77.04296875 92.8359375 C77.366035 93.50269501 77.68910126 94.16945251 78.0219574 94.85641479 C81.82216864 102.69835639 85.62965474 110.53676318 89.4375 118.375 C89.79007874 119.10078247 90.14265747 119.82656494 90.50592041 120.57434082 C92.29017331 124.24718532 94.07450774 127.91999019 95.85888672 131.59277344 C97.99081833 135.98099428 100.12241423 140.36937812 102.25390625 144.7578125 C102.60442047 145.47946594 102.95493469 146.20111938 103.31607056 146.94464111 C105.08349059 150.58350981 106.85085595 154.22240507 108.61816406 157.86132812 C112.19618376 165.22839083 115.77505308 172.59503893 119.35546875 179.9609375 C123.22924682 187.93068623 127.10001813 195.90189042 130.96838379 203.87426758 C132.01342605 206.02766551 133.05893671 208.18083559 134.10449219 210.33398438 C135.77961606 213.78422054 137.45259172 217.23549048 139.12393188 220.68756104 C139.74546659 221.97056387 140.36767032 223.25324284 140.99057007 224.5355835 C141.84059961 226.28585359 142.68795629 228.03742103 143.53515625 229.7890625 C144.013479 230.77600098 144.49180176 231.76293945 144.98461914 232.77978516 C146 235 146 235 146 236 C117.95 236 89.9 236 61 236 C56.53283585 227.0656717 52.13342908 218.09354397 48 209 C66.15 209 84.3 209 103 209 C99.87982422 202.77535889 96.75964844 196.55071777 93.54492188 190.13745117 C83.56985552 170.23543738 73.60068112 150.3304763 63.63522616 130.42364831 C62.0880805 127.33310924 60.54088257 124.24259634 58.99365234 121.15209961 C58.68561902 120.5368199 58.3775857 119.92154019 58.06021804 119.28761563 C53.06816876 109.31658183 48.07188564 99.3476753 43.07404298 89.37954434 C37.9483912 79.15626526 32.82736759 68.93068051 27.71039438 58.70305425 C24.83507411 52.95633368 21.95763153 47.21069774 19.07518005 41.46755028 C16.3647333 36.06694968 13.65987091 30.66359016 10.95934868 25.2580204 C9.96489528 23.26994202 8.96836958 21.28289873 7.96966743 19.29695129 C6.61100839 16.59446411 5.25971655 13.88842045 3.91027832 11.18132019 C3.50951065 10.38852337 3.10874297 9.59572654 2.69583082 8.77890557 C0 3.34236363 0 3.34236363 0 0 Z " fill="#000036" transform="translate(193,83)"/>
<path d="M0 0 C0 8.25 0 16.5 0 25 C-0.66 25 -1.32 25 -2 25 C-2.09796875 24.39671875 -2.1959375 23.7934375 -2.296875 23.171875 C-3.50137654 16.6677942 -3.50137654 16.6677942 -8 12 C-11.67219638 10.27232428 -14.69471035 9.71567774 -18.73828125 9.5859375 C-19.70032471 9.55032715 -20.66236816 9.5147168 -21.65356445 9.47802734 C-22.86101318 9.44402832 -24.06846191 9.4100293 -25.3125 9.375 C-29.169375 9.25125 -33.02625 9.1275 -37 9 C-37 21.87 -37 34.74 -37 48 C-20.49434586 48.11317234 -20.49434586 48.11317234 -12 44 C-10.35334637 41.81460805 -10.35334637 41.81460805 -9.5625 39.3125 C-9.25441406 38.50425781 -8.94632813 37.69601563 -8.62890625 36.86328125 C-8.42136719 36.24839844 -8.21382812 35.63351563 -8 35 C-7.34 35 -6.68 35 -6 35 C-6 45.56 -6 56.12 -6 67 C-6.66 67 -7.32 67 -8 67 C-8.34611328 66.07767578 -8.34611328 66.07767578 -8.69921875 65.13671875 C-9.02535156 64.32847656 -9.35148438 63.52023438 -9.6875 62.6875 C-10.00074219 61.88699219 -10.31398438 61.08648437 -10.63671875 60.26171875 C-12.46201567 57.23350409 -13.71289388 56.36962755 -17 55 C-20.43571596 54.51296987 -23.84631904 54.39890984 -27.3125 54.3125 C-30.509375 54.209375 -33.70625 54.10625 -37 54 C-37 66.21 -37 78.42 -37 91 C-33.390625 90.9175 -29.78125 90.835 -26.0625 90.75 C-24.94367432 90.73420898 -23.82484863 90.71841797 -22.67211914 90.70214844 C-15.00199588 90.44451149 -8.79771063 89.05254882 -2.73046875 84.17578125 C1.18717951 79.44484905 3.85307291 74.76069878 6 69 C6.99 69 7.98 69 9 69 C8.37666455 72.14616546 7.75101862 75.29186743 7.125 78.4375 C6.95097656 79.31599609 6.77695312 80.19449219 6.59765625 81.09960938 C6.42363281 81.97294922 6.24960937 82.84628906 6.0703125 83.74609375 C5.91320801 84.53685303 5.75610352 85.3276123 5.59423828 86.14233398 C5.07077417 88.6596501 4.52202142 91.16904186 3.96286011 93.67860413 C3.78259718 94.48813066 3.60233425 95.29765718 3.41660881 96.13171482 C3.21038745 97.05651598 3.21038745 97.05651598 3 98 C-8.65763913 98.06975097 -20.31522797 98.1229382 -31.97303391 98.15543652 C-37.38720869 98.17104022 -42.80123987 98.19218107 -48.21533203 98.22631836 C-53.44787238 98.25910151 -58.68027527 98.27689277 -63.91291046 98.28463173 C-65.9014324 98.29014138 -67.88994749 98.30089969 -69.87841034 98.31719017 C-97.21259614 98.53206045 -97.21259614 98.53206045 -106 91 C-112.43696703 84.48998938 -115.69071244 76.70291946 -119.39819336 68.45288086 C-120.21439345 66.6473039 -121.04648204 64.84893604 -121.87890625 63.05078125 C-122.3591626 61.98512939 -122.83941895 60.91947754 -123.33422852 59.8215332 C-125.52420848 56.1120801 -128.16397048 53.91801476 -132 52 C-132 51.01 -132 50.02 -132 49 C-131.34773437 48.97421875 -130.69546875 48.9484375 -130.0234375 48.921875 C-123.25544256 48.48265409 -119.09556223 47.20611803 -114.25 42.1875 C-110.77385184 36.10424072 -110.00548115 29.39911257 -111.53515625 22.6328125 C-112.87125593 18.17914692 -114.1639334 14.87704995 -118 12 C-121.46712111 10.84429296 -124.5414956 10.67164707 -128.1875 10.4375 C-129.45980469 10.35371094 -130.73210938 10.26992187 -132.04296875 10.18359375 C-133.50669922 10.09271484 -133.50669922 10.09271484 -135 10 C-134.93880911 20.36179718 -134.86171754 30.72334206 -134.76428509 41.08486557 C-134.71954437 45.89607827 -134.68029644 50.70720555 -134.65356445 55.51855469 C-134.62756836 60.16119022 -134.58719227 64.80349774 -134.53681374 69.44593048 C-134.52011998 71.21771416 -134.50862134 72.9895546 -134.50238609 74.76140594 C-134.49277215 77.2420038 -134.46474628 79.72175776 -134.43237305 82.20214844 C-134.43380814 82.93582642 -134.43524323 83.66950439 -134.4367218 84.42541504 C-134.37980152 87.50624243 -134.17200734 89.68790054 -132.67219543 92.40924072 C-130.37938667 94.59038937 -128.01942729 95.19481939 -125 96 C-125 96.66 -125 97.32 -125 98 C-138.86 98 -152.72 98 -167 98 C-167 97.34 -167 96.68 -167 96 C-166.15115234 95.83564453 -166.15115234 95.83564453 -165.28515625 95.66796875 C-164.55167969 95.50941406 -163.81820312 95.35085937 -163.0625 95.1875 C-162.33160156 95.03667969 -161.60070312 94.88585937 -160.84765625 94.73046875 C-159.93306641 94.36888672 -159.93306641 94.36888672 -159 94 C-157.79365014 90.38095041 -157.83668539 87.05590911 -157.82299805 83.28735352 C-157.81642685 82.50330139 -157.80985565 81.71924927 -157.80308533 80.91143799 C-157.78337617 78.31725977 -157.7716971 75.72313928 -157.76171875 73.12890625 C-157.75764322 72.24301252 -157.7535677 71.3571188 -157.74936867 70.44437981 C-157.7285214 65.75841378 -157.71421201 61.07247696 -157.70483398 56.38647461 C-157.69375237 51.54289491 -157.65932869 46.69977245 -157.61966228 41.85635471 C-157.5935478 38.13403964 -157.58514693 34.41183459 -157.58155251 30.68943596 C-157.57667574 28.90362384 -157.56503082 27.11781698 -157.54651451 25.33209419 C-157.5222249 22.83503764 -157.52306862 20.33917897 -157.5300293 17.84204102 C-157.51721924 17.10372543 -157.50440918 16.36540985 -157.49121094 15.60472107 C-157.52614998 12.16954642 -157.75143241 10.32695236 -159.85749817 7.55674744 C-162.26830504 5.80504886 -164.06034126 5.32662875 -167 5 C-167 4.34 -167 3.68 -167 3 C-159.75821738 2.90673161 -152.51656728 2.83595033 -145.27430248 2.79275131 C-141.91027075 2.77200279 -138.5466542 2.74392409 -135.18286133 2.69824219 C-131.30278844 2.64937296 -127.42329474 2.62694995 -123.54296875 2.609375 C-122.35293747 2.58872986 -121.16290619 2.56808472 -119.93681335 2.54681396 C-109.25160015 2.54398303 -100.78165587 4.81605111 -92.65625 11.92578125 C-88.54187548 17.07845311 -87.46599374 22.49165411 -87.5625 28.9375 C-87.56934814 29.64044189 -87.57619629 30.34338379 -87.58325195 31.06762695 C-87.81078905 38.41272901 -89.73051304 42.44682717 -94.5 47.8125 C-98.22772966 51.07426346 -101.31013593 53.30643797 -106 55 C-105.51096191 55.37769531 -105.02192383 55.75539062 -104.51806641 56.14453125 C-98.54133061 61.02770022 -94.55008951 66.5554635 -90.375 73 C-83.03786427 85.47799482 -83.03786427 85.47799482 -72 94 C-68.60374575 94.43681727 -65.36009017 94.72327365 -62 94 C-59.42363006 91.54000527 -59.0089041 90.08175857 -58.61904907 86.50205994 C-58.60126781 85.08473473 -58.60000876 83.66714342 -58.61181641 82.24975586 C-58.60655945 81.47370499 -58.60130249 80.69765411 -58.59588623 79.89808655 C-58.58269856 77.33679999 -58.59141885 74.77613646 -58.6015625 72.21484375 C-58.59954161 70.43412659 -58.59663005 68.65341024 -58.59286499 66.87269592 C-58.58844349 63.14283357 -58.59486783 59.41318688 -58.60888672 55.68334961 C-58.62599098 50.89914536 -58.61612857 46.11544553 -58.59816933 41.33125973 C-58.58733736 37.65528043 -58.5907749 33.97942107 -58.5985527 30.30343819 C-58.6005557 28.53915917 -58.59809197 26.77486931 -58.59111404 25.01060295 C-58.58350776 22.54705757 -58.59509103 20.08433369 -58.61181641 17.62084961 C-58.60574371 16.88986053 -58.59967102 16.15887146 -58.59341431 15.4057312 C-58.63864629 11.51403589 -58.63864629 11.51403589 -60.32504272 8.09791565 C-62.72717565 6.52334454 -65.25571372 5.79279381 -68 5 C-68 4.34 -68 3.68 -68 3 C-67.00307381 2.98786972 -67.00307381 2.98786972 -65.98600769 2.97549438 C-59.02572526 2.88897867 -52.06571235 2.78945832 -45.10571289 2.68261719 C-42.51331127 2.64449601 -39.92085979 2.60961473 -37.32836914 2.578125 C-33.5872219 2.53210666 -29.84641297 2.47417418 -26.10546875 2.4140625 C-24.38604317 2.39673569 -24.38604317 2.39673569 -22.63188171 2.37905884 C-16.30404826 2.2647892 -10.34268719 1.70557799 -4.14082336 0.42294312 C-2 0 -2 0 0 0 Z " fill="#000036" transform="translate(864,138)"/>
<path d="M0 0 C7.24178262 -0.09326839 14.48343272 -0.16404967 21.72569752 -0.20724869 C25.08972925 -0.22799721 28.4533458 -0.25607591 31.81713867 -0.30175781 C35.69721156 -0.35062704 39.57670526 -0.37305005 43.45703125 -0.390625 C44.64706253 -0.41127014 45.83709381 -0.43191528 47.06318665 -0.45318604 C56.89261575 -0.45579024 66.24824288 1.27903572 73.56640625 8.31640625 C78.7498078 14.40372523 80.23178015 21.09840398 80 29 C79.01417737 37.9641081 75.93546427 44.17519727 69 50 C61.8946092 54.55149589 55.29091748 55.78056984 47 55 C43.16426343 54.03389179 39.47223355 52.91549415 36 51 C35.67 50.01 35.34 49.02 35 48 C35.71285156 47.85304687 36.42570313 47.70609375 37.16015625 47.5546875 C43.68398758 46.02689927 48.73399671 44.35985029 53 39 C56.70582078 32.82363203 56.98371393 25.69723403 55.53125 18.76171875 C54.29693508 14.86040195 52.54339719 11.49605158 49.21777344 8.95361328 C46.00603093 7.57260643 42.7078375 7.25762927 39.265625 6.8671875 C38.56711426 6.78138428 37.86860352 6.69558105 37.14892578 6.60717773 C35.43349032 6.3975134 33.71684737 6.19777017 32 6 C32.06115359 16.63983145 32.13821797 27.27941643 32.23571491 37.9189806 C32.28048211 42.85913786 32.31972411 47.79921145 32.34643555 52.73950195 C32.37240534 57.50532224 32.4127625 62.27082159 32.46318626 67.03644371 C32.4798979 68.85650332 32.49138535 70.67661849 32.49761391 72.49674416 C32.5072085 75.04220009 32.5352109 77.58682694 32.56762695 80.13208008 C32.56619186 80.88805481 32.56475677 81.64402954 32.5632782 82.4229126 C32.62164741 86.40906609 32.62164741 86.40906609 34.32780457 89.91752625 C36.73268954 91.47429695 39.26227722 92.20910231 42 93 C42 93.66 42 94.32 42 95 C28.14 95 14.28 95 0 95 C0 94.34 0 93.68 0 93 C1.670625 92.319375 1.670625 92.319375 3.375 91.625 C6.96199008 90.27534014 6.96199008 90.27534014 9 88 C10.34517995 84.34401451 10.14101638 80.59525243 10.16113281 76.74047852 C10.16609772 76.01640808 10.17106262 75.29233765 10.17617798 74.54632568 C10.19075261 72.15717613 10.19759283 69.76809291 10.203125 67.37890625 C10.20887921 65.71508279 10.21463691 64.05125935 10.22039795 62.38743591 C10.23089378 58.90143526 10.23674609 55.41545758 10.24023438 51.92944336 C10.24572386 47.46608408 10.26976741 43.00302912 10.29820633 38.53976536 C10.31684086 35.10392877 10.32203868 31.66816549 10.32357025 28.23228264 C10.32659419 26.58686594 10.33461402 24.94145045 10.34775543 23.29608345 C10.36483746 20.99345899 10.36293106 18.69157838 10.35644531 16.38891602 C10.36009094 15.07971695 10.36373657 13.77051788 10.36749268 12.42164612 C9.97265151 8.74536406 9.30899145 6.86594375 7 4 C3.42003741 2.63099646 3.42003741 2.63099646 0 2 C0 1.34 0 0.68 0 0 Z " fill="#000036" transform="translate(557,141)"/>
<path d="M0 0 C0.99 0 1.98 0 3 0 C11.77305355 18.95906393 20.53731332 37.92199126 29.1875 56.9375 C29.48447784 57.58935272 29.78145569 58.24120544 30.08743286 58.91281128 C30.94895145 60.80454938 31.80860697 62.69712507 32.66796875 64.58984375 C32.94212112 65.19086411 33.2162735 65.79188446 33.49873352 66.41111755 C34.98734395 69.69232314 36.42186909 72.98899137 37.80322266 76.31689453 C38.10593582 77.03672012 38.40864899 77.75654572 38.72053528 78.4981842 C39.2969578 79.87393521 39.86368331 81.25380817 40.41850281 82.63841248 C42.52789985 87.64654875 45.23363393 91.4322142 50.01953125 94.14453125 C50.61121094 94.36496094 51.20289063 94.58539063 51.8125 94.8125 C52.864375 95.204375 53.91625 95.59625 55 96 C55 96.66 55 97.32 55 98 C40.48 98 25.96 98 11 98 C11 97.34 11 96.68 11 96 C12.98 95.01 14.96 94.02 17 93 C16.62586838 86.51505184 14.7032599 81.45772045 12.05859375 75.5390625 C11 73 11 73 11 71 C0.77 71 -9.46 71 -20 71 C-20.33 72.65 -20.66 74.3 -21 76 C-22.24006521 79.05747225 -23.58690561 82.05420396 -24.94140625 85.0625 C-25.98259747 87.95170958 -26.21770301 89.96332216 -26 93 C-24.02 93.99 -22.04 94.98 -20 96 C-20 96.66 -20 97.32 -20 98 C-29.9 98 -39.8 98 -50 98 C-50 97.34 -50 96.68 -50 96 C-49.39671875 95.78085938 -48.7934375 95.56171875 -48.171875 95.3359375 C-47.37265625 95.01882812 -46.5734375 94.70171875 -45.75 94.375 C-44.96109375 94.07335937 -44.1721875 93.77171875 -43.359375 93.4609375 C-37.93391426 90.10146347 -35.65902754 83.3650889 -33.234375 77.7109375 C-32.88357376 76.90637115 -32.53277252 76.10180481 -32.17134094 75.27285767 C-31.02562313 72.64249486 -29.88780417 70.00879438 -28.75 67.375 C-27.14156239 63.67350354 -25.52954441 59.97356855 -23.91796875 56.2734375 C-23.5102977 55.33578552 -23.10262665 54.39813354 -22.68260193 53.43206787 C-19.9437861 47.13966633 -17.16845117 40.86464628 -14.36328125 34.6015625 C-13.99727814 33.78352142 -13.63127502 32.96548035 -13.25418091 32.12265015 C-11.85149287 28.98901554 -10.44824992 25.85566304 -9.03723145 22.72576904 C-5.66887998 15.25202018 -2.37807264 7.8625575 0 0 Z M-5 35 C-6.71122457 39.11080742 -8.42016239 43.22255542 -10.12695312 47.33520508 C-10.70835029 48.73520815 -11.29038028 50.1349486 -11.87304688 51.53442383 C-12.70868332 53.54179879 -13.54206653 55.55009599 -14.375 57.55859375 C-15.12910156 59.37315063 -15.12910156 59.37315063 -15.8984375 61.22436523 C-17.06148005 63.6572073 -17.06148005 63.6572073 -17 65 C-8.75 65 -0.5 65 8 65 C5.7098277 57.1939916 5.7098277 57.1939916 2.95703125 49.6484375 C2.60576172 48.77832031 2.25449219 47.90820312 1.89257812 47.01171875 C1.35793945 45.70654297 1.35793945 45.70654297 0.8125 44.375 C0.44447266 43.46621094 0.07644531 42.55742187 -0.30273438 41.62109375 C-1.19783479 39.41240441 -2.0969535 37.20544952 -3 35 C-3.66 35 -4.32 35 -5 35 Z " fill="#000036" transform="translate(424,138)"/>
<path d="M0 0 C1.01070557 0.01095703 2.02141113 0.02191406 3.06274414 0.03320312 C10.35223666 0.14068502 17.55589508 0.53329828 24.8125 1.25 C24.4825 7.85 24.1525 14.45 23.8125 21.25 C22.8225 21.58 21.8325 21.91 20.8125 22.25 C20.65394531 21.64671875 20.49539063 21.0434375 20.33203125 20.421875 C18.82835101 15.2711471 17.7203648 11.97659156 12.8125 9.25 C6.66021051 7.06020205 1.20302624 6.78349733 -5.1875 8.25 C-8.97006738 10.10689672 -10.75568993 11.64276709 -13.1875 15.0625 C-14.17541205 18.21146967 -14.5641 20.28351162 -13.390625 23.421875 C-10.47328636 27.85471423 -5.57014252 30.42798448 -1.1875 33.25 C0.4441958 34.31221529 2.07569151 35.37473796 3.70703125 36.4375 C6.31715524 38.13618281 8.92963098 39.83005584 11.55419922 41.50634766 C28.67569762 52.48063356 28.67569762 52.48063356 32.0625 61.625 C33.94090013 70.70393397 32.37132511 78.32189238 28.125 86.5 C21.29515336 94.62197979 13.11627351 97.78359395 2.8125 99.25 C-9.66194126 100.11259434 -21.96221959 98.86883638 -32.1875 91.25 C-34.08015562 89.35734438 -33.40538439 86.21125147 -33.4375 83.6875 C-33.39530842 77.78067892 -32.95385899 73.47534476 -30.1875 68.25 C-28.7025 67.755 -28.7025 67.755 -27.1875 67.25 C-27.10113281 67.8790625 -27.01476562 68.508125 -26.92578125 69.15625 C-25.76711983 76.21451774 -23.98631149 82.21397173 -18.22265625 86.8203125 C-11.39076201 91.27312998 -5.2739614 91.89141903 2.8125 91.25 C7.38338286 90.11146507 10.83078007 87.91980915 13.8125 84.25 C15.04784045 80.54397865 15.26778745 78.15246386 14.8125 74.25 C9.24274318 65.97315467 0.17917804 61.32081952 -8.09619141 56.08935547 C-27.65403213 43.67100247 -27.65403213 43.67100247 -31.1875 33.25 C-32.10830689 25.08051563 -31.61818842 17.33163402 -27.1875 10.25 C-19.64754211 1.42558026 -11.10551101 -0.24156339 0 0 Z " fill="#000036" transform="translate(514.1875,138.75)"/>
<path d="M0 0 C0.66 0 1.32 0 2 0 C3.88776541 3.60211405 5.75677161 7.21328555 7.60913086 10.83374023 C8.24144928 12.06323927 8.87877773 13.2901754 9.52124023 14.5144043 C10.44536359 16.27746846 11.34988777 18.05076173 12.25390625 19.82421875 C12.80377197 20.88729248 13.3536377 21.95036621 13.92016602 23.0456543 C15.581305 27.59040736 14.46970336 29.89249682 12.62402344 34.24438477 C12.04145057 35.47940306 11.45285941 36.71159424 10.859375 37.94140625 C10.54074493 38.6133905 10.22211487 39.28537476 9.89382935 39.97772217 C8.85081212 42.17502858 7.80032598 44.36867923 6.75 46.5625 C5.65662211 48.8623649 4.56527878 51.16318844 3.47396851 53.46403503 C2.73374905 55.02424751 1.99287974 56.58415182 1.25137329 58.14375305 C-2.25119464 65.51317489 -5.69600412 72.90861616 -9.125 80.3125 C-9.63192383 81.40570557 -10.13884766 82.49891113 -10.66113281 83.62524414 C-14.11581607 91.07963451 -17.55701103 98.54019056 -21 106 C-31.56 106 -42.12 106 -53 106 C-45.52896859 89.99905085 -37.67790552 74.20063763 -29.77124023 58.41210938 C-27.93209275 54.73950899 -26.09657852 51.06510648 -24.2620182 47.39021301 C-16.6644864 32.17500691 -9.00660839 17.00535984 -1 2 C-0.67 1.34 -0.34 0.68 0 0 Z " fill="#000036" transform="translate(153,164)"/>
<path d="M0 0 C13.86 0 27.72 0 42 0 C42 0.66 42 1.32 42 2 C40.3603125 2.37125 40.3603125 2.37125 38.6875 2.75 C34.72703903 4.09252914 33.92003624 4.44478861 32 8 C31.71523521 10.59886623 31.59968378 12.95458576 31.62768555 15.55078125 C31.62403488 16.30571869 31.62038422 17.06065613 31.61662292 17.83847046 C31.60852734 20.33004359 31.62211892 22.82096433 31.63671875 25.3125 C31.63723748 27.04597981 31.63671929 28.77946022 31.63520813 30.51293945 C31.63529781 34.14445792 31.64571833 37.77575419 31.66381836 41.40722656 C31.68650536 46.06121647 31.68704915 50.71488175 31.68030071 55.36891174 C31.67695858 58.94798668 31.68359544 62.52698767 31.69342995 66.10604858 C31.69727801 67.82204806 31.69843179 69.53805578 31.6968441 71.25405884 C31.69647307 73.6526048 31.70910405 76.05073524 31.7253418 78.44921875 C31.72286438 79.15791107 31.72038696 79.86660339 31.71783447 80.59677124 C31.75680415 84.20519198 31.91074117 86.98551405 34 90 C35.93103908 91.11473134 35.93103908 91.11473134 38.125 91.75 C38.84945312 91.99234375 39.57390625 92.2346875 40.3203125 92.484375 C40.87460937 92.65453125 41.42890625 92.8246875 42 93 C42 93.66 42 94.32 42 95 C28.14 95 14.28 95 0 95 C0 94.34 0 93.68 0 93 C1.11375 92.566875 2.2275 92.13375 3.375 91.6875 C7.17512334 90.30088881 7.17512334 90.30088881 9 87 C9.18900038 84.41793967 9.26272371 81.94490689 9.24291992 79.36328125 C9.24481827 78.5873764 9.24671661 77.81147156 9.24867249 77.01205444 C9.25237932 74.44543374 9.24167716 71.87909559 9.23046875 69.3125 C9.22927674 67.53035516 9.22882383 65.74820968 9.2290802 63.96606445 C9.22751548 60.23026601 9.21922678 56.4945634 9.20581055 52.75878906 C9.18882077 47.96685708 9.18499624 43.17503047 9.18575573 38.3830719 C9.18548397 34.70282991 9.18000182 31.02261102 9.17275429 27.34237671 C9.16956907 25.57530899 9.16760055 23.80823865 9.16686058 22.04116821 C9.16469548 19.57297293 9.15594749 17.10488995 9.14526367 14.63671875 C9.14571686 13.90415863 9.14617004 13.17159851 9.14663696 12.4168396 C9.12711123 9.33610756 8.98222367 6.94667102 8 4 C6.12612784 3.19787372 6.12612784 3.19787372 3.9375 2.8125 C3.20402344 2.65394531 2.47054687 2.49539062 1.71484375 2.33203125 C1.14894531 2.22246094 0.58304688 2.11289063 0 2 C0 1.34 0 0.68 0 0 Z " fill="#000036" transform="translate(645,141)"/>
<path d="M0 0 C77.88 0 155.76 0 236 0 C236 1.32 236 2.64 236 4 C158.12 4 80.24 4 0 4 C0 2.68 0 1.36 0 0 Z " fill="#000036" transform="translate(373,256)"/>
<path d="M0 0 C1.65 0 3.3 0 5 0 C7.31 5.61 9.62 11.22 12 17 C15.01809724 13.98190276 16.09123305 9.9313585 17.52539062 5.96679688 C18.26953125 4.08984375 18.26953125 4.08984375 20 1 C21.65 0.67 23.3 0.34 25 0 C25 8.25 25 16.5 25 25 C24.01 25 23.02 25 22 25 C21.67 19.72 21.34 14.44 21 9 C18.69 14.28 16.38 19.56 14 25 C12.68 24.67 11.36 24.34 10 24 C8.70650827 21.43378361 7.70932263 19.11975044 6.75 16.4375 C5.8425 13.983125 4.935 11.52875 4 9 C3.67 14.28 3.34 19.56 3 25 C2.01 25 1.02 25 0 25 C0 16.75 0 8.5 0 0 Z " fill="#000036" transform="translate(688,255)"/>
<path d="M0 0 C4.16041143 1.59092212 5.15757431 4.721818 7.01953125 8.59765625 C7.37853516 9.30857422 7.73753906 10.01949219 8.10742188 10.75195312 C8.98987738 12.50509807 9.85059486 14.26915466 10.70703125 16.03515625 C11.03703125 10.75515625 11.36703125 5.47515625 11.70703125 0.03515625 C12.69703125 0.03515625 13.68703125 0.03515625 14.70703125 0.03515625 C14.70703125 8.28515625 14.70703125 16.53515625 14.70703125 25.03515625 C10.70703125 24.03515625 10.70703125 24.03515625 9.42675781 22.54467773 C8.89260254 21.60990601 8.89260254 21.60990601 8.34765625 20.65625 C7.95449219 19.98271484 7.56132813 19.30917969 7.15625 18.61523438 C6.76050781 17.90818359 6.36476563 17.20113281 5.95703125 16.47265625 C5.54582031 15.76173828 5.13460937 15.05082031 4.7109375 14.31835938 C3.69824767 12.56381537 2.70112204 10.80030464 1.70703125 9.03515625 C1.37703125 13.98515625 1.04703125 18.93515625 0.70703125 24.03515625 C-0.61296875 24.03515625 -1.93296875 24.03515625 -3.29296875 24.03515625 C-3.32184111 20.22267199 -3.33972367 16.41021555 -3.35546875 12.59765625 C-3.36384766 11.50904297 -3.37222656 10.42042969 -3.38085938 9.29882812 C-3.38408203 8.26435547 -3.38730469 7.22988281 -3.390625 6.1640625 C-3.39586182 5.2057251 -3.40109863 4.2473877 -3.40649414 3.26000977 C-3.25074544 0.20767016 -3.06389957 0.04697631 0 0 Z " fill="#000036" transform="translate(831.29296875,254.96484375)"/>
<path d="M0 0 C3.34625024 2.52676039 4.67977847 4.03933542 6 8 C6.36631844 13.58635614 6.23232115 17.20724794 3 22 C-0.88301272 25.23584393 -4.0392239 25.45097965 -9 25 C-11.25 24.4375 -11.25 24.4375 -13 23 C-15.64552989 18.18135628 -16.59707545 14.57270424 -16 9 C-13.42584335 0.36694403 -8.49916839 -1.35552925 0 0 Z M-9.875 4.375 C-12.63163661 8.35680844 -12.71441927 12.28320916 -12 17 C-10.08088544 20.2539921 -10.08088544 20.2539921 -7 22 C-3.85289698 22.25329784 -3.85289698 22.25329784 -1 21 C1.77647845 18.05981409 2.41166495 16.00870089 2.375 12 C2.38273438 11.154375 2.39046875 10.30875 2.3984375 9.4375 C1.91720152 6.49346814 1.08944523 5.11351718 -1 3 C-5.73215584 2.37714185 -5.73215584 2.37714185 -9.875 4.375 Z " fill="#000036" transform="translate(790,255)"/>
<path d="M0 0 C3.18810442 2.01696402 4.56068157 3.43309762 5.5859375 7.08984375 C6.36013915 12.12215446 5.91155509 16.22111226 4 21 C2.04196922 23.55395319 1.13328122 23.95557293 -2 25 C-6.95375862 25.36694508 -10.10412627 25.22800966 -14 22 C-16.62924993 17.74311917 -16.56402725 12.85405267 -16 8 C-12.91086866 -0.09058208 -8.07084063 -1.20998249 0 0 Z M-10.3125 4.625 C-12.3977811 7.55984006 -12.85626814 9.40670357 -13 13 C-12.27473974 16.36257031 -11.5580711 18.38213557 -9.25 20.9375 C-6.04870759 22.44922142 -4.32129021 22.13065198 -1 21 C1.60601145 18.13338741 2.1930919 15.70236703 2.3125 11.9375 C1.99270648 7.62958741 1.99270648 7.62958741 0 4 C-3.72155005 2.13922498 -6.9125669 2.23585782 -10.3125 4.625 Z " fill="#000036" transform="translate(674,255)"/>
<path d="M0 0 C2.36010742 0.17944336 2.36010742 0.17944336 5 1 C6.30200195 3.22485352 6.30200195 3.22485352 7.23828125 6.12890625 C7.58310547 7.16337891 7.92792969 8.19785156 8.28320312 9.26367188 C8.79270508 10.8965918 8.79270508 10.8965918 9.3125 12.5625 C9.67150391 13.65498047 10.03050781 14.74746094 10.40039062 15.87304688 C11.28580869 18.57652338 12.1512528 21.28483146 13 24 C11.68 24.33 10.36 24.66 9 25 C8.34 22.69 7.68 20.38 7 18 C3.7 18 0.4 18 -3 18 C-3.33 19.98 -3.66 21.96 -4 24 C-5.32 24.33 -6.64 24.66 -8 25 C-6.43889635 16.25781959 -3.21518143 8.24016625 0 0 Z M1 6 C0.34 8.97 -0.32 11.94 -1 15 C1.31 15 3.62 15 6 15 C5.01 12.03 4.02 9.06 3 6 C2.34 6 1.68 6 1 6 Z " fill="#000036" transform="translate(809,255)"/>
<path d="M0 0 C0.99 0 1.98 0 3 0 C3 3.3 3 6.6 3 10 C6.63 10 10.26 10 14 10 C14 6.7 14 3.4 14 0 C14.99 0 15.98 0 17 0 C17 8.25 17 16.5 17 25 C16.01 25 15.02 25 14 25 C14 21.04 14 17.08 14 13 C10.37 13 6.74 13 3 13 C3 16.96 3 20.92 3 25 C2.01 25 1.02 25 0 25 C0 16.75 0 8.5 0 0 Z " fill="#000036" transform="translate(633,255)"/>
<path d="M0 0 C0.66 0.33 1.32 0.66 2 1 C2 1.99 2 2.98 2 4 C-0.97 4 -3.94 4 -7 4 C-6.44887542 7.94900438 -6.44887542 7.94900438 -4.1875 9.4140625 C-3.465625 9.81367188 -2.74375 10.21328125 -2 10.625 C1.90818859 12.81637717 1.90818859 12.81637717 3 15 C3.375 17.875 3.375 17.875 3 21 C1.0625 23.4375 1.0625 23.4375 -2 25 C-5.07952672 25.02574855 -7.985226 24.60426843 -11 24 C-11.33 22.68 -11.66 21.36 -12 20 C-9.03 20.33 -6.06 20.66 -3 21 C-2.34 19.68 -1.68 18.36 -1 17 C-1.721875 16.5875 -2.44375 16.175 -3.1875 15.75 C-10.59691033 11.13970024 -10.59691033 11.13970024 -11.76953125 7.82421875 C-11.8125 5.6875 -11.8125 5.6875 -11 2 C-6.94641576 -0.70238949 -4.81689896 -0.22937614 0 0 Z " fill="#000036" transform="translate(866,255)"/>
<path d="M0 0 C4.62 0 9.24 0 14 0 C13.67 0.99 13.34 1.98 13 3 C9.7 3 6.4 3 3 3 C3 5.31 3 7.62 3 10 C5.97 10 8.94 10 12 10 C12 10.99 12 11.98 12 13 C9.03 13 6.06 13 3 13 C3 15.97 3 18.94 3 22 C6.63 22 10.26 22 14 22 C13.67 22.99 13.34 23.98 13 25 C11.02090602 25.02686553 9.04171029 25.04633375 7.0625 25.0625 C5.96035156 25.07410156 4.85820313 25.08570313 3.72265625 25.09765625 C1 25 1 25 0 24 C-0.08726223 22.21928754 -0.10699041 20.4351686 -0.09765625 18.65234375 C-0.09443359 17.57275391 -0.09121094 16.49316406 -0.08789062 15.38085938 C-0.07951172 14.24455078 -0.07113281 13.10824219 -0.0625 11.9375 C-0.05798828 10.79732422 -0.05347656 9.65714844 -0.04882812 8.48242188 C-0.0369976 5.65492582 -0.0190615 2.82745655 0 0 Z " fill="#000036" transform="translate(723,255)"/>
<path d="M0 0 C1.32 0 2.64 0 4 0 C4 7.26 4 14.52 4 22 C6.97 22 9.94 22 13 22 C13 22.99 13 23.98 13 25 C11.02090602 25.02686553 9.04171029 25.04633375 7.0625 25.0625 C5.96035156 25.07410156 4.85820313 25.08570313 3.72265625 25.09765625 C1 25 1 25 0 24 C-0.08726223 22.21928754 -0.10699041 20.4351686 -0.09765625 18.65234375 C-0.09443359 17.57275391 -0.09121094 16.49316406 -0.08789062 15.38085938 C-0.07951172 14.24455078 -0.07113281 13.10824219 -0.0625 11.9375 C-0.05798828 10.79732422 -0.05347656 9.65714844 -0.04882812 8.48242188 C-0.03699747 5.65489649 -0.0205141 2.8274736 0 0 Z " fill="#000036" transform="translate(757,255)"/>
</svg>
